<svg width="136" height="16" viewBox="0 0 136 16" fill="none" xmlns="http://www.w3.org/2000/svg">
<mask id="mask0_1760_3710" style="mask-type:luminance" maskUnits="userSpaceOnUse" x="0" y="0" width="136" height="14">
<path d="M136 0H0V14H136V0Z" fill="white"/>
</mask>
<g mask="url(#mask0_1760_3710)">
<path d="M77.2114 13.6992H74.6045L76.4494 10.9847L78.1896 8.41269C78.1015 8.338 78.0059 8.27277 77.9044 8.21813C75.5648 7.43545 75.3709 5.50364 75.6963 3.79803C76.0016 2.21458 77.2025 1.50202 78.6576 1.19664C79.1507 1.1056 79.6514 1.06242 80.1527 1.06771C81.5117 1.05187 82.8709 1.06771 84.2885 1.06771V13.6856H81.9975V8.74968H80.5114L77.2114 13.6992ZM81.9261 2.8932C80.9838 2.93845 80.1438 2.92713 79.3304 3.03571C78.4592 3.15108 78.0047 3.74601 77.9378 4.67572C77.8598 5.75473 78.2498 6.50121 79.1032 6.77719C80.0168 7.07352 80.9503 6.97852 81.9261 6.89708V2.8932Z" fill="#3C3A37"/>
<path d="M94.9901 0V1.66037C94.493 1.76894 93.9918 1.90693 93.4817 1.97932C92.8759 2.06528 92.2628 2.09469 91.6522 2.14219C89.5737 2.30279 88.3458 3.67814 88.2209 6.06689C88.3069 6.01435 88.3872 5.95213 88.4594 5.8814C89.645 4.39295 91.198 4.10794 92.9003 4.60333C94.6025 5.09873 95.4873 6.38584 95.7524 8.1186C96.1247 10.5481 95.235 12.5116 93.3836 13.4232C90.1592 15.0066 86.8707 13.1766 86.5122 9.57765C86.3135 7.59832 86.3338 5.62578 86.9891 3.7166C87.7263 1.59703 89.199 0.452416 91.3983 0.271449C92.5597 0.178704 93.7202 0.0950073 94.9901 0ZM93.6536 9.15913H93.5888C93.5888 8.98948 93.5888 8.81984 93.5888 8.65019C93.4882 7.12781 92.6797 6.22976 91.3602 6.17321C89.8964 6.11214 88.847 6.99209 88.7156 8.519C88.6548 9.21941 88.7148 9.92534 88.8941 10.6046C89.1836 11.6678 90.0635 12.2084 91.1915 12.1881C92.2718 12.1745 93.056 11.6203 93.386 10.5684C93.5061 10.1048 93.5969 9.63414 93.6601 9.15913H93.6536Z" fill="#3C3A37"/>
<path d="M7.37985 7.18893C8.85939 7.64134 9.59243 8.60047 9.54791 10.1025C9.50111 11.6859 8.69671 12.7559 7.3197 13.3938C5.93242 14.0264 4.36426 14.1182 2.91456 13.6517C2.06889 13.3985 1.32726 12.8729 0.801541 12.1544C0.27582 11.4359 -0.00547703 10.5632 8.08009e-05 9.66818H2.10127C2.16366 9.82654 2.24833 10.0278 2.32408 10.2337C2.46295 10.6169 2.68518 10.9633 2.97422 11.2473C3.26326 11.5312 3.61168 11.7453 3.99352 11.8736C4.37536 12.0018 4.78078 12.041 5.1796 11.9881C5.57841 11.9353 5.96034 11.7918 6.29695 11.5683C6.62297 11.3228 6.86957 10.9843 7.00529 10.5959C7.14101 10.2075 7.15971 9.78685 7.059 9.38768C6.8852 8.56201 6.31701 8.234 5.57279 8.12995C5.2132 8.08951 4.85169 8.06912 4.48989 8.06888C4.13561 8.06888 3.78133 8.06888 3.37579 8.06888V6.37232C3.79024 6.37232 4.16903 6.37232 4.55005 6.37232C5.39231 6.37232 6.18554 6.27731 6.55543 5.34985C6.84064 4.64861 6.67575 3.73473 6.20337 3.29363C5.63072 2.75978 4.35174 2.615 3.60753 3.09456C3.27872 3.34041 2.99894 3.64747 2.78309 3.9994C2.64048 4.26633 2.52764 4.54857 2.44664 4.84089H0.392243C0.368347 4.09437 0.566701 3.35788 0.961415 2.72755C1.35612 2.09722 1.92886 1.60235 2.60484 1.30752C3.74739 0.826298 5.01197 0.730351 6.21228 1.03381C7.57594 1.33919 8.6165 2.09247 8.97082 3.54924C9.32505 5.00602 8.91283 5.97872 7.37985 7.18893Z" fill="#3C3A37"/>
<path d="M69.404 9.61386H63.0581C62.8643 10.7449 63.4213 11.7425 64.395 12.1022C65.6852 12.5817 66.826 12.1497 67.5145 10.8942H69.4887C69.442 11.4703 69.2353 12.0213 68.8925 12.483C68.5498 12.9446 68.0851 13.2981 67.5523 13.5024C66.4111 13.987 65.1435 14.0721 63.9494 13.7444C61.7502 13.1857 60.5246 11.3037 60.6584 8.79502C60.83 5.62811 63.4035 3.66009 66.4516 4.39301C68.6286 4.9246 69.8763 7.05774 69.404 9.61386ZM67.3051 8.07567C67.2315 6.60079 66.5029 5.87919 65.2105 5.89051C63.9561 5.90182 63.1004 6.75009 63.0425 8.07567H67.3051Z" fill="#3C3A37"/>
<path d="M111.657 13.9027C108.812 13.9027 106.967 12.007 106.978 9.10254C106.978 6.232 108.863 4.27982 111.657 4.24137C114.451 4.20291 116.439 6.27724 116.408 9.13194C116.376 11.9867 114.48 13.9095 111.657 13.9027ZM114.202 9.13425C114.158 8.69078 114.088 8.25044 113.992 7.81546C113.639 6.56 112.782 5.97186 111.499 6.02841C110.962 6.03106 110.444 6.2327 110.043 6.59546C109.641 6.95823 109.384 7.45719 109.32 7.99868C109.206 8.80467 109.226 9.62449 109.38 10.4236C109.603 11.5253 110.477 12.1405 111.557 12.179C112.721 12.2197 113.562 11.6768 113.926 10.5661C114.051 10.0961 114.143 9.61758 114.202 9.13425Z" fill="#3C3A37"/>
<path d="M10.9185 9.132C10.9185 6.22293 12.8525 4.21873 15.64 4.24588C18.4275 4.27302 20.3571 6.29759 20.3371 9.10483C20.3148 11.9731 18.423 13.8982 15.6155 13.9027C12.7657 13.9072 10.9185 12.0297 10.9185 9.132ZM18.1244 9.10252L18.0665 9.08901C18.0665 8.86279 18.0665 8.63657 18.0353 8.41034C17.8949 6.98751 17.0371 6.08269 15.7804 6.02613C14.3744 5.9628 13.3828 6.74774 13.2135 8.2294C13.125 9.00995 13.1779 9.80038 13.3695 10.5616C13.6525 11.6519 14.5237 12.1926 15.6356 12.1835C16.7118 12.1835 17.4894 11.6406 17.8393 10.582C17.9661 10.0952 18.06 9.6001 18.12 9.1003L18.1244 9.10252Z" fill="#3C3A37"/>
<path d="M54.6978 13.9027C51.8635 13.9027 50.0186 12.0093 50.0186 9.10715C50.0186 6.24333 51.908 4.27533 54.6844 4.24365C57.4228 4.21199 59.4237 6.23428 59.4349 9.04382C59.4505 11.9483 57.5432 13.9027 54.6978 13.9027ZM57.2379 9.09578L57.1399 9.07997C57.1399 8.85375 57.1599 8.62752 57.1399 8.40138C56.9995 6.98077 56.1372 6.0782 54.8805 6.02617C53.4722 5.96736 52.5008 6.74325 52.3181 8.23626C52.2318 8.99226 52.2763 9.75782 52.4495 10.4983C52.6946 11.5592 53.5369 12.1474 54.5841 12.1881C55.7183 12.231 56.5427 11.7357 56.9215 10.6635C57.0657 10.1497 57.1714 9.62572 57.2379 9.09578Z" fill="#3C3A37"/>
<path d="M40.8187 9.18852C40.8031 12.0614 38.927 13.9163 36.0526 13.9027C33.2473 13.8891 31.418 11.9596 31.418 9.04827C31.4291 6.21166 33.3988 4.2165 36.1596 4.24817C38.9938 4.27532 40.8365 6.23202 40.8187 9.18852ZM33.5882 9.02118C33.6519 9.52188 33.7456 10.0182 33.869 10.5073C34.2255 11.6384 35.0276 12.2016 36.1907 12.1835C36.7107 12.1956 37.2188 12.0253 37.6295 11.7014C38.0402 11.3776 38.3285 10.9199 38.4457 10.4055C38.7356 9.45015 38.6987 8.42338 38.3409 7.49199C37.9599 6.5374 37.2402 6.04652 36.2041 6.0239C35.168 6.00128 34.3569 6.45822 33.9514 7.44223C33.7397 7.94893 33.6952 8.52805 33.5882 9.02118Z" fill="#3C3A37"/>
<path d="M126.595 9.04832C126.628 6.18901 128.564 4.22101 131.326 4.24137C134.177 4.26173 136.042 6.2614 136.004 9.25865C135.964 12.0795 134.024 13.9366 131.154 13.8982C128.406 13.8642 126.561 11.903 126.595 9.04832ZM128.727 9.0302C128.823 9.59596 128.954 10.1551 129.12 10.7041C129.487 11.7063 130.247 12.1767 131.323 12.1767C132.35 12.1767 133.09 11.6994 133.478 10.7426C133.703 10.2083 133.818 9.63203 133.812 9.05062C133.806 8.46921 133.682 7.89525 133.446 7.36529C133.052 6.46047 132.315 6.01936 131.321 6.01936C130.327 6.01936 129.574 6.40844 129.184 7.33589C128.991 7.89087 128.838 8.45941 128.725 9.03695L128.727 9.0302Z" fill="#3C3A37"/>
<path d="M29.5306 4.54449V13.6584H27.4584V6.17545H24.8224C24.7801 7.01921 24.7734 7.8607 24.6843 8.69086C24.5595 9.83779 24.477 11.005 24.1829 12.1111C23.7885 13.6018 22.846 14.0724 21.2417 13.7534V12.0433C22.1597 11.8713 22.4026 11.7266 22.5028 10.7697C22.6833 9.08904 22.7479 7.39698 22.8504 5.7072C22.8727 5.34527 22.8504 4.98108 22.8504 4.54224L29.5306 4.54449Z" fill="#3C3A37"/>
<path d="M98.3945 4.52417H105.097V13.6698H103.01V6.17097H100.345C100.307 7.01246 100.311 7.85169 100.222 8.68184C100.099 9.82877 99.9994 10.9937 99.7229 12.1021C99.3377 13.5974 98.3856 14.0769 96.7993 13.7535V12.0455C97.7555 12.0455 98.0247 11.3511 98.0871 10.5481C98.2169 8.88995 98.2972 7.22736 98.3904 5.57152C98.4107 5.23673 98.3945 4.9042 98.3945 4.52417Z" fill="#3C3A37"/>
<path d="M120.412 9.72701V13.6608H118.317V4.5242H120.385V8.08471L120.608 8.19781L123.562 4.5061H125.942L122.442 8.76109L126.23 13.6879H123.707L120.639 9.64778L120.412 9.72701Z" fill="#3C3A37"/>
<path d="M44.3747 6.08731H41.6118V4.53552H49.2188V6.07826H46.5227V13.6811H44.3747V6.08731Z" fill="#3C3A37"/>
</g>
</svg>
