<svg width="102" height="12" viewBox="0 0 102 12" fill="none" xmlns="http://www.w3.org/2000/svg">
<mask id="mask0_1760_2743" style="mask-type:luminance" maskUnits="userSpaceOnUse" x="0" y="0" width="102" height="11">
<path d="M102 0H0V10.5H102V0Z" fill="white"/>
</mask>
<g mask="url(#mask0_1760_2743)">
<path d="M57.9088 10.2744H55.9536L57.3373 8.23852L58.6425 6.30955C58.5764 6.25353 58.5046 6.20461 58.4286 6.16363C56.6739 5.57662 56.5285 4.12776 56.7725 2.84855C57.0014 1.66096 57.9021 1.12655 58.9934 0.89751C59.3633 0.829229 59.7388 0.796846 60.1148 0.800811C61.134 0.788934 62.1534 0.800811 63.2166 0.800811V10.2642H61.4984V6.56229H60.3838L57.9088 10.2744ZM61.4448 2.16993C60.7381 2.20386 60.1081 2.19538 59.4981 2.27681C58.8446 2.36334 58.5037 2.80954 58.4536 3.50682C58.3951 4.31608 58.6876 4.87594 59.3276 5.08292C60.0128 5.30517 60.713 5.23392 61.4448 5.17284V2.16993Z" fill="#3C3A37"/>
<path d="M71.2425 0V1.24528C70.8696 1.32671 70.4937 1.4302 70.1112 1.48449C69.6568 1.54896 69.197 1.57102 68.739 1.60664C67.1801 1.7271 66.2593 2.7586 66.1656 4.55017C66.2301 4.51076 66.2903 4.4641 66.3444 4.41105C67.2336 3.29471 68.3984 3.08095 69.6751 3.4525C70.9517 3.82404 71.6153 4.78938 71.8142 6.08895C72.0934 7.91107 71.4262 9.38366 70.0376 10.0674C67.6193 11.2549 65.1529 9.88248 64.8841 7.18324C64.735 5.69874 64.7502 4.21934 65.2417 2.78745C65.7946 1.19777 66.8991 0.339312 68.5486 0.203587C69.4196 0.134028 70.29 0.0712555 71.2425 0ZM70.2401 6.86935H70.1915C70.1915 6.74211 70.1915 6.61488 70.1915 6.48764C70.116 5.34586 69.5096 4.67232 68.52 4.62991C67.4222 4.5841 66.6351 5.24406 66.5366 6.38925C66.491 6.91456 66.536 7.44401 66.6704 7.95344C66.8876 8.75082 67.5475 9.15631 68.3935 9.14105C69.2037 9.13086 69.7919 8.71525 70.0394 7.92633C70.1294 7.57859 70.1975 7.22561 70.245 6.86935H70.2401Z" fill="#3C3A37"/>
<path d="M5.53489 5.39163C6.64454 5.73095 7.19432 6.45029 7.16093 7.57682C7.12583 8.76437 6.52253 9.56688 5.48977 10.0453C4.44932 10.5197 3.2732 10.5886 2.18592 10.2387C1.55167 10.0488 0.995446 9.65465 0.601156 9.11575C0.206865 8.57685 -0.00410777 7.92233 6.06007e-05 7.25107H1.57595C1.62274 7.36985 1.68625 7.5208 1.74306 7.67521C1.84721 7.9626 2.01388 8.22245 2.23067 8.43541C2.44745 8.64838 2.70876 8.8089 2.99514 8.90513C3.28152 9.0013 3.58558 9.0307 3.8847 8.99105C4.18381 8.95139 4.47026 8.8438 4.72272 8.67617C4.96723 8.49205 5.15217 8.23813 5.25397 7.94685C5.35576 7.65557 5.36978 7.34008 5.29425 7.0407C5.1639 6.42145 4.73776 6.17544 4.17959 6.0974C3.9099 6.06707 3.63877 6.05178 3.36742 6.0516C3.10171 6.0516 2.836 6.0516 2.53184 6.0516V4.77918C2.84268 4.77918 3.12677 4.77918 3.41254 4.77918C4.04423 4.77918 4.63916 4.70792 4.91657 4.01233C5.13048 3.4864 5.00681 2.80099 4.65253 2.47016C4.22304 2.06977 3.26381 1.96119 2.70565 2.32086C2.45904 2.50525 2.24921 2.73554 2.08732 2.99949C1.98036 3.19969 1.89573 3.41137 1.83498 3.63061H0.294182C0.276261 3.07071 0.425026 2.51835 0.721061 2.0456C1.01709 1.57285 1.44664 1.2017 1.95363 0.980579C2.81054 0.619663 3.75898 0.547703 4.65921 0.775297C5.68195 1.00433 6.46238 1.56929 6.72811 2.66187C6.99379 3.75446 6.68462 4.48398 5.53489 5.39163Z" fill="#3C3A37"/>
<path d="M52.053 7.2103H47.2936C47.1482 8.05858 47.566 8.8068 48.2962 9.07652C49.2639 9.43618 50.1195 9.11216 50.6359 8.17056H52.1165C52.0815 8.60266 51.9265 9.01587 51.6694 9.36212C51.4123 9.70838 51.0638 9.97347 50.6643 10.1267C49.8084 10.4901 48.8576 10.554 47.962 10.3082C46.3126 9.88916 45.3935 8.47765 45.4938 6.59618C45.6225 4.22099 47.5526 2.74498 49.8387 3.29467C51.4714 3.69336 52.4073 5.29321 52.053 7.2103ZM50.4788 6.05666C50.4236 4.9505 49.8771 4.4093 48.9079 4.41779C47.9671 4.42627 47.3253 5.06248 47.2819 6.05666H50.4788Z" fill="#3C3A37"/>
<path d="M83.7429 10.4271C81.6086 10.4271 80.2249 9.00532 80.2334 6.82694C80.2334 4.67403 81.647 3.2099 83.7429 3.18106C85.8383 3.15221 87.329 4.70796 87.3059 6.84899C87.2822 8.99006 85.8602 10.4321 83.7429 10.4271ZM85.6515 6.85072C85.6187 6.51811 85.5658 6.18786 85.494 5.86162C85.2288 4.92003 84.5865 4.47893 83.6243 4.52134C83.2211 4.52333 82.833 4.67455 82.5319 4.94663C82.2309 5.2187 82.0381 5.59292 81.99 5.99904C81.9042 6.60353 81.9194 7.2184 82.035 7.81777C82.2023 8.64399 82.8573 9.10544 83.6675 9.13428C84.5403 9.16479 85.1717 8.75764 85.4441 7.92462C85.5384 7.57213 85.6071 7.21321 85.6515 6.85072Z" fill="#3C3A37"/>
<path d="M8.18896 6.849C8.18896 4.6672 9.63953 3.16405 11.7301 3.18441C13.8207 3.20477 15.268 4.72319 15.2529 6.82862C15.2362 8.97982 13.8174 10.4236 11.7118 10.427C9.57439 10.4304 8.18896 9.02225 8.18896 6.849ZM13.5934 6.82689L13.55 6.81676C13.55 6.64709 13.55 6.47742 13.5266 6.30776C13.4213 5.24064 12.7779 4.56201 11.8354 4.5196C10.7809 4.4721 10.0373 5.0608 9.91025 6.17205C9.84389 6.75747 9.88355 7.35028 10.0273 7.92117C10.2395 8.73894 10.8929 9.14442 11.7268 9.13763C12.534 9.13763 13.1172 8.73048 13.3796 7.93649C13.4747 7.5714 13.5451 7.20007 13.5901 6.82522L13.5934 6.82689Z" fill="#3C3A37"/>
<path d="M41.0236 10.4271C38.8979 10.4271 37.5142 9.00704 37.5142 6.83039C37.5142 4.68253 38.9313 3.20652 41.0135 3.18277C43.0674 3.15902 44.568 4.67574 44.5764 6.78289C44.5881 8.96127 43.1576 10.4271 41.0236 10.4271ZM42.9287 6.82187L42.8551 6.81001C42.8551 6.64034 42.8702 6.47067 42.8551 6.30107C42.7499 5.23561 42.1031 4.55868 41.1606 4.51966C40.1044 4.47555 39.3758 5.05747 39.2388 6.17723C39.1741 6.74423 39.2075 7.31839 39.3374 7.87378C39.5212 8.66943 40.1529 9.11056 40.9383 9.14107C41.789 9.17331 42.4073 8.8018 42.6913 7.99762C42.7995 7.61233 42.8788 7.21932 42.9287 6.82187Z" fill="#3C3A37"/>
<path d="M30.614 6.89145C30.6023 9.04611 29.1953 10.4373 27.0394 10.4271C24.9355 10.4169 23.5635 8.96977 23.5635 6.78627C23.5718 4.6588 25.0491 3.16244 27.1197 3.18619C29.2454 3.20655 30.6274 4.67407 30.614 6.89145ZM25.1912 6.76594C25.2389 7.14147 25.3092 7.51373 25.4017 7.88055C25.6691 8.72883 26.2707 9.1513 27.143 9.13771C27.533 9.14673 27.9141 9.01906 28.2221 8.77614C28.5302 8.53328 28.7464 8.18999 28.8343 7.80421C29.0517 7.08768 29.024 6.31759 28.7557 5.61905C28.4699 4.90311 27.9301 4.53495 27.1531 4.51799C26.376 4.50102 25.7677 4.84373 25.4635 5.58173C25.3048 5.96176 25.2714 6.3961 25.1912 6.76594Z" fill="#3C3A37"/>
<path d="M94.9466 6.78624C94.9716 4.64176 96.4234 3.16576 98.4944 3.18103C100.633 3.19629 102.032 4.69605 102.003 6.94398C101.974 9.05961 100.518 10.4525 98.3655 10.4236C96.3048 10.3982 94.9211 8.92725 94.9466 6.78624ZM96.5457 6.77265C96.6174 7.19697 96.716 7.61636 96.8401 8.02808C97.1156 8.77969 97.6855 9.13256 98.4926 9.13256C99.2626 9.13256 99.8179 8.77457 100.109 8.05692C100.278 7.65619 100.364 7.22403 100.359 6.78797C100.355 6.35191 100.262 5.92144 100.085 5.52397C99.7894 4.84535 99.2365 4.51452 98.4908 4.51452C97.7457 4.51452 97.1807 4.80633 96.8881 5.50191C96.7433 5.91815 96.6284 6.34456 96.5438 6.77771L96.5457 6.77265Z" fill="#3C3A37"/>
<path d="M22.1478 3.40843V10.2439H20.5937V4.63165H18.6167C18.5849 5.26447 18.5799 5.89558 18.5131 6.51821C18.4195 7.37841 18.3576 8.2538 18.1371 9.08342C17.8412 10.2014 17.1344 10.5543 15.9312 10.3151V9.03253C16.6197 8.90356 16.8018 8.79498 16.877 8.07734C17.0123 6.81684 17.0608 5.54779 17.1377 4.28046C17.1544 4.00901 17.1377 3.73587 17.1377 3.40674L22.1478 3.40843Z" fill="#3C3A37"/>
<path d="M73.796 3.39307H78.823V10.2523H77.2574V4.62816H75.2588C75.2302 5.25928 75.2332 5.88871 75.1663 6.51132C75.0745 7.37152 74.9997 8.24524 74.7923 9.07653C74.5034 10.198 73.7893 10.5576 72.5996 10.315V9.0341C73.3167 9.0341 73.5186 8.5133 73.5655 7.91103C73.6628 6.6674 73.723 5.42046 73.793 4.17858C73.8082 3.92749 73.796 3.67809 73.796 3.39307Z" fill="#3C3A37"/>
<path d="M90.3089 7.29519V10.2455H88.7378V3.39309H90.2888V6.06347L90.456 6.1483L92.6718 3.37952H94.457L91.8313 6.57076L94.6723 10.2658H92.7807L90.4792 7.23578L90.3089 7.29519Z" fill="#3C3A37"/>
<path d="M33.2812 4.56545H31.209V3.40161H36.9142V4.55867H34.8922V10.2608H33.2812V4.56545Z" fill="#3C3A37"/>
</g>
</svg>
