<svg width="81" height="12" viewBox="0 0 81 12" fill="none" xmlns="http://www.w3.org/2000/svg">
<mask id="mask0_1770_4048" style="mask-type:luminance" maskUnits="userSpaceOnUse" x="0" y="2" width="81" height="10">
<path d="M80.9849 2.25H0V11.9526H80.9849V2.25Z" fill="white"/>
</mask>
<g mask="url(#mask0_1770_4048)">
<path fill-rule="evenodd" clip-rule="evenodd" d="M35.3187 2.55954L39.3124 8.58732L37.0827 11.9528H39.3877L45.6124 2.55956H43.309L40.4033 6.94223L37.4991 2.55956L35.3187 2.55954ZM77.4241 7.83018H72.7841V6.90373H77.4241C77.8612 6.90373 78.2808 6.90373 78.5909 6.9715C78.7457 7.00531 78.8625 7.05307 78.9399 7.11616C79.0115 7.17771 79.0514 7.25459 79.0514 7.3654C79.0514 7.47772 79.0115 7.5547 78.9399 7.61622C78.8625 7.68086 78.7457 7.72708 78.5909 7.76096C78.2808 7.82867 77.8612 7.82867 77.4241 7.82867V7.83018ZM77.3233 5.31711V5.32032H72.7841V2.55954H70.8511V9.41056H77.4397C78.293 9.41056 79.1726 9.41056 79.84 9.15974C80.1783 9.03202 80.467 8.84126 80.67 8.54578C80.8739 8.25026 80.9849 7.86406 80.9849 7.36384C80.9849 6.86525 80.8739 6.47741 80.67 6.18361C80.467 5.88808 80.1783 5.69576 79.84 5.56802C79.1726 5.31869 78.293 5.31869 77.4397 5.31869H77.3233V5.31711ZM49.4275 7.83018H54.0685V6.90373H49.4275C48.9914 6.90373 48.5736 6.90373 48.2599 6.9715C48.1047 7.00531 47.9911 7.05307 47.9141 7.11616C47.842 7.17771 47.8005 7.25459 47.8005 7.3654C47.8005 7.47772 47.842 7.5547 47.9141 7.61622C47.9911 7.68086 48.1047 7.72708 48.2599 7.76096C48.5736 7.82867 48.9914 7.82867 49.4275 7.82867V7.83018ZM54.067 5.31711C54.0558 5.03249 54.0086 4.82164 53.9302 4.66312C53.8455 4.48927 53.7258 4.37538 53.5827 4.29851C53.4357 4.22155 53.2614 4.17987 53.0662 4.15837C52.8681 4.13837 52.6578 4.13837 52.4412 4.13837H46.7326V2.55799H52.5424V2.56104C52.9401 2.56104 53.3432 2.56415 53.7209 2.60412C54.1327 2.64883 54.528 2.73498 54.8673 2.91656C55.21 3.09813 55.4957 3.37364 55.6943 3.77985C55.8919 4.18464 56.001 4.72008 56.001 5.41878V9.40754H49.4139C48.5612 9.40754 47.6791 9.40754 47.0138 9.15823C46.6757 9.03055 46.3853 8.83814 46.1809 8.54422C45.9796 8.24875 45.8675 7.8625 45.8675 7.36233C45.8675 6.86381 45.9795 6.47598 46.1809 6.18208C46.3853 5.88663 46.6757 5.69423 47.0138 5.56656C47.6791 5.31714 48.5612 5.31714 49.4139 5.31714L54.067 5.31711ZM24.0924 4.14148V2.55956H34.1985V4.14148H30.1127V9.41061H28.1797V4.14148H24.0923H24.0924ZM57.1751 9.41368L57.2092 9.28742C57.8035 7.01147 58.5921 5.331 59.6158 4.21688C60.6448 3.09811 61.9046 2.55956 63.4258 2.55956C64.947 2.55956 66.2102 3.10122 67.2368 4.21838C68.262 5.33257 69.0501 7.01303 69.6439 9.28742L69.679 9.41368H67.7377L67.7182 9.33978C67.0991 7.13764 66.3567 5.9035 65.609 5.22179C64.8686 4.54163 64.1102 4.40001 63.4258 4.40001C62.7429 4.40001 61.9845 4.54319 61.2426 5.22179C60.4944 5.9035 59.755 7.13764 59.1349 9.33978L59.1144 9.41368H57.1751ZM0 9.41061L0.0332049 9.2844C0.627804 7.00991 1.41625 5.32952 2.44003 4.21688C3.46748 3.09811 4.72857 2.55956 6.25107 2.55956C7.77391 2.55956 9.03359 3.10122 10.0616 4.21688C11.0865 5.32952 11.8763 7.01146 12.4694 9.28742L12.5017 9.41368H10.5626L10.5441 9.33978C9.92328 7.13764 9.18269 5.9035 8.43666 5.22179C7.69373 4.54163 6.93499 4.40001 6.25107 4.40001C5.56748 4.40001 4.80878 4.54319 4.06747 5.22179C3.32095 5.9035 2.57958 7.13608 1.96047 9.33826L1.93946 9.41212H1.64381e-05L0 9.41061ZM13.5804 3.27049L13.4928 3.32899L14.5577 4.7447L14.6407 4.67397C15.2431 4.16767 16.2864 3.82757 17.8291 3.82757C19.9665 3.82757 21.1358 4.47542 21.517 5.31869H17.7277V6.90226H21.3771C20.8901 7.61788 19.7483 8.14101 17.8291 8.14101C16.2894 8.14101 15.2461 7.80093 14.6437 7.29461L14.5608 7.22544L13.4943 8.6427L13.5835 8.70271C14.5393 9.33977 15.9468 9.72612 17.8291 9.72612C19.7114 9.72612 21.2112 9.31516 22.167 8.64124C23.1257 7.9641 23.5945 7.02377 23.5945 5.98818C23.5945 4.95244 23.1243 4.0107 22.1654 3.33515C21.2097 2.65957 19.7714 2.25024 17.8291 2.25024C15.8884 2.25024 14.5361 2.63644 13.5804 3.27361V3.2705L13.5804 3.27049Z" fill="#F8F5F1"/>
</g>
</svg>
