<svg width="107" height="16" viewBox="0 0 107 16" fill="none" xmlns="http://www.w3.org/2000/svg">
<mask id="mask0_1760_3803" style="mask-type:luminance" maskUnits="userSpaceOnUse" x="0" y="3" width="107" height="13">
<path d="M106.98 3H0V15.9368H106.98V3Z" fill="white"/>
</mask>
<g mask="url(#mask0_1760_3803)">
<path fill-rule="evenodd" clip-rule="evenodd" d="M46.6555 3.41264L51.9311 11.4497L48.9857 15.937H52.0306L60.2534 3.41266H57.2106L53.3722 9.25623L49.5359 3.41266L46.6555 3.41264ZM102.276 10.4402H96.147V9.20489H102.276C102.854 9.20489 103.408 9.20489 103.818 9.29525C104.022 9.34034 104.176 9.40402 104.279 9.48813C104.373 9.5702 104.426 9.67271 104.426 9.82045C104.426 9.97021 104.373 10.0728 104.279 10.1549C104.176 10.2411 104.022 10.3027 103.818 10.3479C103.408 10.4381 102.854 10.4381 102.276 10.4381V10.4402ZM102.143 7.0894V7.09368H96.147V3.41264H93.5935V12.5473H102.297C103.424 12.5473 104.586 12.5473 105.468 12.2129C105.915 12.0426 106.296 11.7883 106.564 11.3943C106.833 11.0003 106.98 10.4853 106.98 9.81837C106.98 9.15359 106.833 8.63647 106.564 8.24473C106.296 7.85069 105.915 7.59427 105.468 7.42394C104.586 7.0915 103.424 7.0915 102.297 7.0915H102.143V7.0894ZM65.2932 10.4402H71.4238V9.20489H65.2932C64.717 9.20489 64.1651 9.20489 63.7508 9.29525C63.5457 9.34034 63.3956 9.40402 63.294 9.48813C63.1987 9.5702 63.1439 9.67271 63.1439 9.82045C63.1439 9.97021 63.1987 10.0728 63.294 10.1549C63.3956 10.2411 63.5457 10.3027 63.7508 10.3479C64.1651 10.4381 64.717 10.4381 65.2932 10.4381V10.4402ZM71.4219 7.0894C71.4071 6.70991 71.3447 6.42877 71.2412 6.21742C71.1293 5.98561 70.9711 5.83375 70.782 5.73127C70.5878 5.62865 70.3576 5.57308 70.0998 5.54441C69.8381 5.51774 69.5603 5.51774 69.2741 5.51774H61.7331V3.41058H69.4079V3.41464C69.9332 3.41464 70.4657 3.41878 70.9647 3.47208C71.5087 3.5317 72.0308 3.64656 72.479 3.88867C72.9317 4.13075 73.3092 4.4981 73.5715 5.03972C73.8326 5.57944 73.9766 6.29336 73.9766 7.22496V12.5433H65.2751C64.1488 12.5433 62.9835 12.5433 62.1046 12.2109C61.658 12.0407 61.2743 11.7841 61.0043 11.3922C60.7384 10.9983 60.5904 10.4833 60.5904 9.81636C60.5904 9.15166 60.7384 8.63456 61.0043 8.24269C61.2743 7.84875 61.658 7.59223 62.1046 7.422C62.9835 7.08944 64.1488 7.08944 65.2751 7.08944L71.4219 7.0894ZM31.8257 5.52189V3.41266H45.1759V5.52189H39.7785V12.5474H37.225V5.52189H31.8257H31.8257ZM75.5276 12.5515L75.5726 12.3831C76.3577 9.34854 77.3995 7.10792 78.7517 5.62242C80.1111 4.13073 81.7753 3.41266 83.7847 3.41266C85.7942 3.41266 87.4629 4.13488 88.819 5.62442C90.1732 7.11001 91.2143 9.35063 91.9988 12.3831L92.0451 12.5515H89.4807L89.455 12.453C88.637 9.51677 87.6564 7.87125 86.6687 6.96231C85.6907 6.05543 84.6888 5.86659 83.7847 5.86659C82.8826 5.86659 81.8807 6.05751 80.9007 6.96231C79.9124 7.87125 78.9356 9.51677 78.1164 12.453L78.0894 12.5515H75.5276ZM0 12.5474L0.0438632 12.3791C0.829321 9.34646 1.87085 7.10595 3.22325 5.62242C4.58049 4.13073 6.24639 3.41266 8.25758 3.41266C10.2692 3.41266 11.9333 4.13488 13.2912 5.62242C14.6452 7.10595 15.6884 9.34853 16.472 12.3831L16.5146 12.5515H13.953L13.9286 12.453C13.1085 9.51677 12.1302 7.87125 11.1447 6.96231C10.1633 6.05543 9.16104 5.86659 8.25758 5.86659C7.35458 5.86659 6.35233 6.05751 5.37307 6.96231C4.38694 7.87125 3.40759 9.51469 2.58975 12.4509L2.56201 12.5494H2.17145e-05L0 12.5474ZM17.9395 4.36057L17.8239 4.43858L19.2306 6.32618L19.3402 6.23188C20.1359 5.55682 21.5141 5.10335 23.552 5.10335C26.3756 5.10335 27.9202 5.96715 28.4237 7.0915H23.4181V9.20293H28.2389C27.5955 10.1571 26.0873 10.8546 23.552 10.8546C21.5181 10.8546 20.1399 10.4012 19.3442 9.72607L19.2347 9.63384L17.8259 11.5235L17.9436 11.6035C19.2062 12.453 21.0656 12.9681 23.5521 12.9681C26.0386 12.9681 28.0197 12.4201 29.2823 11.5216C30.5488 10.6187 31.168 9.36494 31.168 7.98416C31.168 6.60317 30.5469 5.34752 29.2803 4.44678C28.0177 3.54601 26.1178 3.00024 23.5521 3.00024C20.9884 3.00024 19.2021 3.51517 17.9396 4.36474V4.36059L17.9395 4.36057Z" fill="#3C3A37"/>
</g>
</svg>
