<svg width="506" height="506" viewBox="0 0 506 506" fill="none" xmlns="http://www.w3.org/2000/svg">
<path d="M90.2722 58.643L96.9543 54.3914L97.1475 54.6951L94.5489 56.3485L94.5919 56.416C95.1717 56.2841 96.0583 56.8579 96.6258 57.3028L116.348 71.1616C116.468 71.2752 117.091 71.7323 117.391 72.2048L117.83 71.9256C117.723 71.7569 117.456 71.263 117.308 70.361L113.294 47.361C113.214 46.9376 113.089 46.5909 112.917 46.3209C112.466 45.6122 111.693 45.4404 110.545 46.1705L107.643 48.0171L107.45 47.7134L114.807 43.0323L115 43.3361L114.595 43.5937C113.515 44.2809 113.632 45.0601 113.969 46.9315L119.081 74.6377L117.345 75.9322L94.2941 59.4501C92.6866 58.3394 92.0853 57.916 90.9717 58.6246L90.4654 58.9467L90.2722 58.643Z" fill="#3C3A37"/>
<path d="M130.811 67.3828L130.646 67.0632L131.889 66.4189C133.593 65.5354 133.697 65.3013 132.814 63.5967L121.824 42.3956C120.94 40.691 120.689 40.641 118.985 41.5246L117.742 42.1689L117.576 41.8492L126.632 37.1552L126.834 37.5459L125.591 38.1901C123.887 39.0737 123.747 39.3262 124.631 41.0308L135.584 62.1608C136.467 63.8655 136.754 63.8971 138.458 63.0135L139.701 62.3692L139.867 62.6888L130.811 67.3828Z" fill="#3C3A37"/>
<path d="M143.382 60.9003L143.24 60.5698L146.03 59.3646C147.793 58.6035 147.898 58.3406 147.136 56.5779L137.004 33.112L134.801 34.0634C131.275 35.5857 130.328 36.8226 131.667 40.4272L132.186 42.033L131.53 42.2291L128.402 33.4716L128.785 33.3497L129.558 35.5431L146.67 28.1539L145.583 26.14L145.971 25.9288L150.185 34.1739L149.556 34.5328L148.779 33.038C147 29.6236 145.524 29.4333 141.998 30.9555L139.868 31.8752L150.001 55.3411C150.762 57.1038 151.025 57.2081 152.787 56.447L155.505 55.2736L155.648 55.6041L143.382 60.9003Z" fill="#3C3A37"/>
<path d="M163.148 52.7055L163.037 52.3631L165.929 51.4247C167.755 50.832 167.884 50.58 167.291 48.7538L159.401 24.4421L157.118 25.1829C153.465 26.3683 152.407 27.511 153.402 31.2252L153.768 32.8725L153.097 33.0064L150.803 23.9944L151.195 23.9089L151.759 26.165L169.489 20.411L168.595 18.3041L169.001 18.1302L172.424 26.7338L171.764 27.0321L171.131 25.4712C169.68 21.9052 168.228 21.5774 164.575 22.7628L162.368 23.479L170.259 47.7907C170.851 49.6169 171.103 49.7454 172.929 49.1527L175.745 48.239L175.856 48.5814L163.148 52.7055Z" fill="#3C3A37"/>
<path d="M193.759 44.5063C185.017 46.2778 178.047 41.6907 176.291 33.0268C174.543 24.4021 179.178 17.4635 187.92 15.6919C196.584 13.9362 203.554 18.5234 205.302 27.1481C207.057 35.812 202.423 42.7506 193.759 44.5063ZM193.734 43.7768C200.829 42.3389 203.758 37.052 202.042 28.5841C200.143 19.2145 195.159 14.9597 187.906 16.4293C180.771 17.8752 177.851 23.2013 179.559 31.63C181.465 41.0387 186.403 45.2623 193.734 43.7768Z" fill="#3C3A37"/>
<path d="M210.328 41.0678L210.301 40.7088L211.696 40.6009C213.611 40.453 213.795 40.2382 213.647 38.3239L211.812 14.5946C211.664 12.6804 211.45 12.4964 209.535 12.6443L208.14 12.7522L208.112 12.3933L218.521 11.5887C224.902 11.0955 229.403 14.3181 229.813 19.6223C230.19 24.4878 226.776 28.0815 222.025 28.8901L221.23 28.9917L221.249 29.2309C223.138 29.2855 224.906 30.3524 225.888 31.6405L228.126 34.637C229.249 36.1951 231.072 38.5014 232.309 38.4058C232.707 38.375 233.06 38.2675 233.431 37.8778L234.25 37.0522L234.511 37.3129L233.692 38.1384C232.502 39.3537 231.459 39.8757 230.502 39.9497C228.468 40.1069 226.912 38.141 225.525 36.2824L222.4 32.191C220.927 30.2588 220.009 29.2866 218.214 29.4254L217.736 29.4624L217.684 28.7844L219.518 28.6426C224.344 28.2695 226.757 25.2345 226.344 19.8905C225.937 14.6262 223.083 11.9582 218.257 12.3312L214.11 12.6518L214.113 12.6917C214.628 13.1333 214.88 13.7959 214.951 14.7131L216.757 38.0834C216.905 39.9977 217.16 40.1786 219.074 40.0306L221.387 39.8518L221.415 40.2108L210.328 41.0678Z" fill="#3C3A37"/>
<path d="M233.835 39.4604V39.1004H235.235C237.155 39.1004 237.355 38.9404 237.355 37.0204V13.1404C237.355 11.2204 237.155 11.0604 235.235 11.0604H233.835V10.7004H244.035V11.1404H242.635C240.715 11.1404 240.475 11.3004 240.475 13.2204V37.0204C240.475 38.9404 240.715 39.1004 242.635 39.1004H244.035V39.4604H233.835Z" fill="#3C3A37"/>
<path d="M259.882 40.6378C251.001 39.8134 245.649 33.4115 246.466 24.6093C247.28 15.847 253.718 10.5393 262.6 11.3636C271.402 12.1806 276.753 18.5825 275.94 27.3449C275.123 36.147 268.685 41.4548 259.882 40.6378ZM260.068 39.932C267.277 40.6011 271.606 36.383 272.404 27.78C273.288 18.2609 269.742 12.7496 262.374 12.0658C255.125 11.393 250.793 15.6508 249.998 24.214C249.111 33.7729 252.62 39.2407 260.068 39.932Z" fill="#3C3A37"/>
<path d="M304.881 33.8844C304.478 35.3916 302.912 36.2982 301.404 35.8959C299.897 35.4936 298.99 33.9268 299.393 32.4196C299.795 30.9123 301.352 30.0444 302.859 30.4467C304.366 30.849 305.283 32.3772 304.881 33.8844Z" fill="#3C3A37"/>
<path d="M318.78 53.288L318.92 52.9565L320.209 53.5018C321.978 54.2498 322.349 53.8856 323.097 52.1173L332.275 30.4184C333.023 28.6501 332.901 28.4248 331.132 27.6769L329.843 27.1315L329.983 26.7999L339.377 30.7734L339.237 31.1049L337.948 30.5596C336.179 29.8116 335.896 29.8655 335.148 31.6338L326.001 53.259C325.659 54.0695 325.01 54.5768 324.381 54.8319L324.365 54.8687L329.339 56.9723C332.875 58.4682 335.529 58.7655 337.32 55.3535L339.173 51.7941L339.909 52.1058L334.747 62.2567L334.394 62.0641L335.461 59.9528L335.424 59.9372C335.057 60.086 334.879 60.0974 334.289 59.8481L318.78 53.288Z" fill="#3C3A37"/>
<path d="M347.657 48.759C347.58 48.8988 347.502 49.0386 347.424 49.1784C342.756 57.5671 344.111 64.1806 350.088 67.5065C354.772 70.1127 359.551 70.1626 363.484 67.8653L363.794 68.5416C359.643 70.9009 354.562 70.8197 349.633 68.0773C342.293 63.9928 339.684 55.7662 344.002 48.0066C348.261 40.3519 356.239 38.1079 363.999 42.4258C370.081 45.81 372.811 52.9139 369.29 59.2404L369.193 59.4152C368.862 60.0094 368.14 60.1565 367.546 59.8259L347.657 48.759ZM348.007 48.1298L365.725 57.6684C365.9 57.7656 366.063 57.7191 366.18 57.5094C369.505 51.5324 368.437 45.7195 363.509 42.9771C357.532 39.6512 352.115 41.489 348.007 48.1298Z" fill="#3C3A37"/>
<path d="M381.705 91.0119L381.415 90.798L383.079 88.5458C383.617 87.7499 383.632 86.5177 382.924 85.9949C382.635 85.781 382.194 85.7042 381.691 85.7799C379.102 86.2548 376.417 85.5144 374.229 83.8984C367.472 78.9076 366.517 70.8423 371.793 63.6996C376.998 56.6534 384.876 55.2118 391.504 60.1075C393.691 61.7236 395.251 63.9202 395.894 66.4836C395.936 66.7633 395.899 67.0836 395.797 67.3563L395.949 67.4192C396.075 67.1143 396.185 66.8975 396.399 66.6079L398.544 63.3682L398.889 63.5737L392.084 73.8636L391.513 73.4918L392.953 71.2732C395.476 67.3187 394.036 62.8731 390.754 60.449C385.606 56.6465 380.082 58.3349 374.973 65.2524C369.269 72.9743 369.219 79.3028 374.785 83.4143C376.933 84.9506 379.674 85.6826 382.3 84.8874L385.414 80.6726C386.744 78.8708 386.433 76.801 384.632 75.4701L380.899 72.7133L381.327 72.1342L393.328 80.9987L392.9 81.5779L390.166 79.5578L388.217 82.1961L381.705 91.0119Z" fill="#3C3A37"/>
<path d="M399.599 83.5944C399.489 83.71 399.378 83.8256 399.267 83.9412C392.629 90.8758 392.266 97.6169 397.207 102.347C401.079 106.054 405.69 107.311 410.076 106.084L410.206 106.816C405.593 108.049 400.697 106.684 396.623 102.784C390.555 96.9752 390.113 88.3561 396.253 81.9416C402.311 75.6138 410.597 75.4615 417.011 81.6022C422.039 86.4152 422.883 93.9788 417.876 99.2086L417.738 99.3531C417.268 99.8443 416.531 99.8038 416.04 99.3335L399.599 83.5944ZM400.097 83.0743L414.825 96.7856C414.969 96.9239 415.139 96.9202 415.305 96.7468C420.035 91.8059 420.472 85.9119 416.398 82.0117C411.457 77.2816 405.751 77.6889 400.097 83.0743Z" fill="#3C3A37"/>
<path d="M406.607 112.002L406.884 111.772L407.776 112.851C409 114.331 409.281 114.358 410.761 113.134L428.333 98.606C428.857 98.1726 428.962 97.3587 428.453 96.7422C428.427 96.7114 428.402 96.6805 428.376 96.6497L426.718 94.9583L426.878 94.7746L429.334 96.7405C430.6 97.7697 432.206 98.2061 433.47 97.1611L433.593 97.0591L433.797 97.3057L429.759 100.645C429.266 101.053 426.774 103.061 426.471 103.259L426.649 103.475C427.255 103.078 428.353 102.585 429.061 102.312C432.421 101.039 435.926 101.826 438.041 104.385C440.794 107.714 440.443 111.119 437.668 113.412L421.823 126.514C420.343 127.737 420.317 128.019 421.54 129.498L422.458 130.608L422.18 130.837L415.681 122.976L415.958 122.747L418.43 125.737L418.492 125.686C418.529 125.292 418.571 125.154 419.064 124.746L435.156 111.441C438.177 108.943 439.097 106.729 437.313 104.571C434.713 101.427 429.704 101.52 425.203 105.242L412.749 115.539C411.269 116.762 411.268 117.075 412.492 118.554L413.384 119.633L413.106 119.863L406.607 112.002Z" fill="#3C3A37"/>
<path d="M425.995 135.149L428.31 138.701C433.006 145.905 439.55 147.226 447.022 142.356C454.428 137.528 455.893 130.987 451.197 123.782L448.882 120.23L448.848 120.252C448.708 120.916 448.415 121.346 447.645 121.848L427.975 134.67C427.204 135.172 426.693 135.267 426.028 135.127L425.995 135.149ZM422.137 130.549L422.439 130.352L423.203 131.525C424.252 133.134 424.528 133.192 426.137 132.143L445.773 119.344C447.382 118.295 447.742 117.822 446.693 116.213L445.929 115.04L446.23 114.844L452.39 124.294C457.501 132.135 456.105 140.541 448.901 145.237C441.663 149.955 433.408 147.84 428.297 139.999L422.137 130.549Z" fill="#3C3A37"/>
<path d="M441.722 161.113L442.054 160.974L442.456 161.933C443.197 163.704 443.474 163.848 445.245 163.107L467.2 153.917C468.971 153.176 469.063 152.878 468.321 151.106L467.92 150.147L468.252 150.008L470.615 155.653L455.438 173.887C454.907 174.587 454.499 175.061 454.351 175.123L454.444 175.344C454.834 175.138 455.351 174.921 455.978 174.659L472.545 167.724C474.316 166.983 474.623 166.161 473.881 164.39L473.186 162.729L473.519 162.59L477.163 171.298L476.831 171.437L476.121 169.74C475.38 167.969 474.579 167.61 472.808 168.351L447.422 178.977L447.298 178.682C447.778 178.481 448.469 177.542 449.154 176.691L465.951 156.218C466.498 155.556 466.934 154.939 467.081 154.878L467.004 154.693C466.614 154.9 466.06 155.132 465.433 155.394L445.508 163.734C443.737 164.475 443.645 164.774 444.386 166.545L444.788 167.505L444.456 167.644L441.722 161.113ZM457.003 190.057L453.559 181.829L454.269 181.662L457.729 189.927L457.003 190.057ZM469.205 185.643C473.744 183.744 475.582 181.196 474.44 178.466C473.343 175.846 471.022 175.17 467.849 176.498C463.31 178.398 461.477 180.856 462.636 183.623C463.732 186.243 466.032 186.972 469.205 185.643ZM471.171 187.336C467.186 189.004 463.516 187.591 461.941 183.828C460.35 180.027 461.919 176.421 465.904 174.753C469.852 173.101 473.559 174.498 475.15 178.298C476.725 182.062 475.119 185.683 471.171 187.336Z" fill="#3C3A37"/>
<path d="M460.906 215.371L457.973 203.859L458.322 203.77L458.954 206.251C459.428 208.111 459.72 208.285 461.89 207.732L480.031 203.11C480.922 202.883 481.746 202.715 482.309 202.654L482.347 202.479C482.075 202.383 481.579 202.22 480.898 201.816L477.252 199.979L477.415 199.649L479.7 200.677C484.259 202.694 487.077 203.709 487.891 203.502L488.019 204.006L462.591 210.484C460.421 211.037 460.237 211.29 460.711 213.15L461.255 215.282L460.906 215.371Z" fill="#3C3A37"/>
<path d="M463.254 227.106L460.939 215.454L461.292 215.384L461.791 217.895C462.165 219.778 462.448 219.966 464.645 219.53L483.006 215.882C483.908 215.703 484.74 215.578 485.305 215.548L485.352 215.375C485.085 215.265 484.599 215.076 483.941 214.636L480.398 212.608L480.579 212.286L482.805 213.434C487.25 215.691 490.01 216.856 490.834 216.692L490.935 217.202L465.198 222.315C463.001 222.752 462.805 222.995 463.179 224.878L463.607 227.036L463.254 227.106Z" fill="#3C3A37"/>
<path d="M467.086 231.188C467.242 232.216 466.677 233.03 465.57 233.197C464.542 233.353 463.734 232.828 463.566 231.721C463.411 230.692 463.93 229.845 465.037 229.677C466.065 229.522 466.919 230.081 467.086 231.188Z" fill="#3C3A37"/>
<path d="M493.82 242.795C493.445 238.571 488.864 236.73 480.736 237.453C470.735 238.342 465.605 241.168 465.995 245.55C466.367 249.734 470.916 251.659 479.083 250.932C489.044 250.046 494.21 247.177 493.82 242.795ZM494.552 242.89C495.062 248.628 489.549 253.013 480.783 253.793C471.978 254.576 465.778 251.232 465.267 245.495C464.754 239.717 470.27 235.372 479.076 234.589C487.841 233.809 494.038 237.113 494.552 242.89Z" fill="#3C3A37"/>
<path d="M466.562 268.168L466.378 256.289L466.738 256.284L466.778 258.843C466.807 260.763 467.051 260.999 469.291 260.965L488.009 260.676C488.928 260.662 489.769 260.689 490.33 260.76L490.408 260.599C490.165 260.442 489.721 260.169 489.152 259.618L486.031 256.986L486.267 256.702L488.251 258.232C492.218 261.251 494.724 262.892 495.563 262.879L495.572 263.399L469.335 263.804C467.095 263.839 466.858 264.043 466.888 265.962L466.922 268.162L466.562 268.168Z" fill="#3C3A37"/>
</svg>
