<svg width="200" height="100" viewBox="0 0 200 100" fill="none" xmlns="http://www.w3.org/2000/svg">
<path d="M21.7142 70.0401C21.8928 70.3616 21.9999 70.7544 22.0714 71.1116C25.0357 82.8973 16.8928 93.9687 5.99995 97.9687L5.71423 97.2544C16.3214 93.5044 24.1428 82.7901 21.2499 71.3258L21.1071 70.8258C18.0357 74.433 15.75 76.8616 14.6785 77.1473C14 77.3258 13.3214 76.9687 13.1428 76.3973C12.4642 73.6473 14.3214 69.1116 17.2857 63.7901C14.6428 60.3973 11.6071 56.6473 9.46423 48.2901C5.96423 34.433 15.7499 13.1116 29.9642 9.54013C35.9285 8.04013 40.1071 11.2187 41.7142 17.5401C44.8214 29.8258 27.7499 51.1116 18.8928 64.6473C19.8571 66.0758 20.7499 67.433 21.3571 69.1473C31.2142 56.8616 49.3928 31.933 62.75 21.1473L63.1785 21.7544C49.9285 32.3616 31.9285 57.5758 21.7142 70.0401ZM17.7499 63.0044C26.3571 48.1116 43.3571 27.2901 40.9285 17.7544C39.3928 11.683 35.6785 8.93298 30.0357 10.3616C17.3214 13.5758 7.03566 35.0758 10.2857 47.8616C12.3571 56.0044 15.2142 59.683 17.7499 63.0044ZM20.7857 69.8616C20.1785 68.1473 19.3571 66.683 18.3928 65.3258C15.3571 70.1473 13.3928 73.933 13.8928 75.8258C13.9642 76.1473 14.3571 76.3258 14.7142 76.2544C15.5357 76.0401 17.7499 73.6116 20.7857 69.8616Z" fill="#3C3A37"/>
<path d="M50.5 63.7548C50.5714 64.0762 50.7857 64.1119 51.4285 63.969C53.5 63.4333 61.1428 57.969 64.7857 54.9333C65.0357 54.8619 65.2142 54.8976 65.2857 55.1476C65.3214 55.3262 65.2857 55.5048 65 55.7548C61.25 58.719 54.0714 64.1833 51.25 64.8976C50.4285 65.1119 49.6785 65.0405 49.5 64.2905C48.9642 62.1476 50.9285 58.3619 55.3571 52.8262L55.2142 52.6833C51.9285 55.0048 49.3928 56.969 44.25 61.0048C44 61.0762 43.8214 61.0405 43.75 60.7905C43.7142 60.6119 43.75 60.4333 44.0357 60.1833C49.1428 56.2548 51.5 54.3976 59.1785 49.1119L59.6071 49.4333C52.2857 58.5405 50.2142 62.5048 50.5 63.7548ZM68.5357 29.8619C69.2142 29.6833 69.9285 30.1119 70.1071 30.7905C70.3214 31.6119 69.6428 32.3976 68.8928 32.6119C68.2142 32.7905 67.4999 32.3619 67.3214 31.6833C67.1071 30.8262 67.7857 30.0405 68.5357 29.8619Z" fill="#3C3A37"/>
<path d="M86.0714 49.8976C86.1071 50.0762 86.0714 50.2547 85.7857 50.5047C82.0357 53.469 75.2499 58.8262 72.4285 59.5405C71.6071 59.7547 70.8571 59.6833 70.6785 58.9333C70.4642 58.0047 75.4642 49.8619 79.2499 43.1476L79.1071 43.0047C75.7142 46.6833 70.4642 51.469 65 55.7547C64.75 55.8262 64.5714 55.7905 64.5 55.5405C64.4642 55.3619 64.5 55.1833 64.7857 54.9333C70.1071 50.7547 75.2857 46.1833 80.6428 40.5047C83.4285 36.0762 85.3214 32.8619 87.0357 29.8619L80.4642 31.5047C80.2142 31.5762 79.9999 31.4333 79.9285 31.1833C79.8571 30.9333 80 30.719 80.25 30.6476L87.6428 28.7905C90.2857 24.219 92.1785 20.8262 94.5 16.469L96.0714 16.0762L96.4285 16.4333C94.6428 19.5405 92.1071 23.7905 89.2857 28.3976L95.1785 26.8976C95.4285 26.8262 95.6428 26.969 95.7142 27.219C95.7857 27.469 95.6428 27.6833 95.3928 27.7547L88.6785 29.469C80.8214 42.3976 71.3928 57.5047 71.6071 58.4333C71.6785 58.7547 71.8928 58.7905 72.5357 58.6476C74.6071 58.1119 81.8214 52.7547 85.4642 49.719C85.8214 49.6119 86 49.6476 86.0714 49.8976Z" fill="#3C3A37"/>
<path d="M106.821 44.6476C106.857 44.8262 106.821 45.0047 106.536 45.2547C102.786 48.219 95.9999 53.5762 93.1785 54.2905C92.3571 54.5047 91.6071 54.4333 91.4285 53.6833C91.2142 52.7547 96.2142 44.6119 99.9999 37.8976L99.8571 37.7547C96.4642 41.4333 91.2142 46.219 85.75 50.5047C85.5 50.5762 85.3214 50.5405 85.25 50.2905C85.2142 50.1119 85.25 49.9333 85.5357 49.6833C90.8571 45.5047 96.0357 40.9333 101.393 35.2547C104.179 30.8262 106.071 27.6119 107.786 24.6119L101.214 26.2547C100.964 26.3262 100.75 26.1833 100.679 25.9333C100.607 25.6833 100.75 25.469 101 25.3976L108.393 23.5405C111.036 18.969 112.929 15.5762 115.25 11.219L116.821 10.8262L117.179 11.1833C115.393 14.2905 112.857 18.5405 110.036 23.1476L115.929 21.6476C116.179 21.5762 116.393 21.719 116.464 21.969C116.536 22.219 116.393 22.4333 116.143 22.5047L109.429 24.219C101.571 37.1476 92.1428 52.2547 92.3571 53.1833C92.4285 53.5047 92.6428 53.5405 93.2857 53.3976C95.3571 52.8619 102.571 47.5047 106.214 44.469C106.571 44.3619 106.75 44.3976 106.821 44.6476Z" fill="#3C3A37"/>
<path d="M116.893 36.3616C118.643 34.5759 120.536 33.3259 121.964 32.9687C123.607 32.5402 124.536 33.2902 124.929 34.8616C125.357 36.5402 124.75 38.7187 123.536 40.8616C124.071 41.2545 124.5 41.2187 125.107 41.0759C126.107 40.8259 127.393 40.0402 129.179 38.6473C129.429 38.5759 129.607 38.6116 129.679 38.8616C129.714 39.0402 129.679 39.2187 129.393 39.4687C127.714 40.8616 126.393 41.5402 125.143 41.8616C124.393 42.0402 123.679 42.0402 123.143 41.6473C121.107 45.0759 117.643 48.2545 114.75 48.9687C112.929 49.433 111.821 48.8973 111.5 47.5759C110.929 45.2545 112.357 41.8973 114.393 39.1473L114.25 39.0045C112.107 40.6116 110.429 42.0045 106.536 45.183C106.286 45.2545 106.107 45.2187 106.036 44.9687C106 44.7902 106.036 44.6116 106.321 44.3616C110.107 41.2545 112.393 39.5044 116.893 36.3616ZM114.429 48.183C119.179 46.9687 125.25 39.2544 124.143 34.933C123.857 33.8616 123.25 33.4687 122.25 33.7187C118.857 34.5759 111.536 44.4687 112.321 47.5402C112.464 48.1473 113 48.5402 114.429 48.183Z" fill="#3C3A37"/>
<path d="M128.857 39.2551C128.821 39.0765 128.857 38.8979 129.143 38.6479C132.857 35.8622 137.857 31.5765 142.357 27.7193C143.143 24.9693 144.893 23.3622 145.964 23.1122C146.214 23.0408 146.536 23.2193 146.607 23.5765C146.786 24.3265 145.893 25.9693 143.143 28.0051C144 28.5765 145.179 29.0765 146 29.2193C146.464 28.9336 146.857 28.4693 147.107 28.3979C147.357 28.3265 147.536 28.3622 147.607 28.6122C147.714 29.0408 147.036 29.1836 146.107 30.0408C140.071 35.4693 137.393 40.2908 137.714 41.6122C137.786 41.9336 138.107 42.0408 138.571 41.9336C140.643 41.3979 148.286 35.9336 151.929 32.8979C152.179 32.8265 152.357 32.8622 152.429 33.1122C152.464 33.2908 152.429 33.4693 152.143 33.7193C148.393 36.6836 141.214 42.1479 138.393 42.8622C137.464 43.0765 136.929 42.6836 136.786 42.1122C136.214 39.7908 137.429 35.9336 145.429 29.7551C144.393 29.5051 143.286 28.9693 142.464 28.5408C138.286 31.9693 133.393 36.3265 129.321 39.4693C129.107 39.5408 128.929 39.5051 128.857 39.2551Z" fill="#3C3A37"/>
<path d="M158.464 36.4335C158.536 36.7549 158.75 36.7906 159.393 36.6478C161.464 36.112 169.107 30.6477 172.75 27.612C173 27.5406 173.179 27.5763 173.25 27.8263C173.286 28.0049 173.25 28.1835 172.964 28.4335C169.214 31.3978 162.036 36.862 159.214 37.5763C158.393 37.7906 157.643 37.7192 157.464 36.9692C156.929 34.8263 158.893 31.0406 163.321 25.5049L163.179 25.362C159.893 27.6835 157.357 29.6477 152.214 33.6835C151.964 33.7549 151.786 33.7192 151.714 33.4692C151.679 33.2906 151.714 33.112 152 32.862C157.107 28.9335 159.464 27.0763 167.143 21.7906L167.571 22.112C160.214 31.2192 158.143 35.1835 158.464 36.4335ZM176.464 2.54061C177.143 2.36204 177.857 2.79061 178.036 3.46918C178.25 4.29061 177.571 5.07632 176.821 5.29061C176.143 5.46918 175.429 5.04061 175.25 4.36204C175.036 3.54061 175.714 2.75489 176.464 2.54061Z" fill="#3C3A37"/>
<path d="M183.321 19.5403C185.071 17.7546 186.964 16.5046 188.393 16.1474C190.036 15.7189 190.964 16.4689 191.357 18.0403C191.786 19.6832 191.179 21.8974 189.964 24.0403C190.5 24.4332 190.929 24.3974 191.536 24.2546C192.536 24.0046 193.821 23.2189 195.607 21.826C195.857 21.7546 196.036 21.7903 196.107 22.0403C196.143 22.2189 196.107 22.3974 195.821 22.6474C194.143 24.0403 192.821 24.7189 191.571 25.0403C190.821 25.2189 190.107 25.2189 189.571 24.826C187.536 28.2546 184.071 31.4332 181.179 32.1474C179.357 32.6117 178.25 32.076 177.929 30.7546C177.357 28.4332 178.786 25.076 180.821 22.326L180.679 22.1832C178.536 23.7903 176.857 25.1832 172.964 28.3617C172.714 28.4332 172.536 28.3974 172.464 28.1474C172.429 27.9689 172.464 27.7903 172.75 27.5403C176.536 24.4332 178.821 22.7189 183.321 19.5403ZM180.857 31.3974C185.607 30.1832 191.679 22.4689 190.571 18.1474C190.286 17.076 189.679 16.6832 188.679 16.9332C185.286 17.7903 177.964 27.6832 178.75 30.7546C178.893 31.3617 179.429 31.7546 180.857 31.3974Z" fill="#3C3A37"/>
</svg>
