<svg width="184" height="88" viewBox="0 0 184 88" fill="none" xmlns="http://www.w3.org/2000/svg">
<path d="M1.31421 61.0479H12.9384V61.3845C12.0837 61.3845 11.3999 61.5528 11.058 61.7211C10.7161 61.8895 10.3742 62.2261 10.2033 62.5627C10.0323 62.8994 9.8614 63.4043 9.8614 63.741C9.8614 64.0776 9.8614 64.2459 10.0323 64.5826C10.0323 64.7509 10.2033 65.2559 10.5452 66.0975L15.8444 80.0681L20.9727 67.7807C21.6565 66.0975 21.9984 64.7509 21.9984 64.0776C21.9984 63.5727 21.9984 63.236 21.8275 62.8994C21.6565 62.5627 21.4856 62.2261 21.3146 62.0578C21.1437 61.8895 20.8018 61.7211 20.4599 61.7211C20.118 61.7211 19.7761 61.5528 19.4343 61.5528V61.0479H27.2977V61.3845C26.6139 61.3845 26.1011 61.5528 25.5882 61.8895C25.0754 62.2261 24.7335 62.5627 24.2207 63.0677C23.8788 63.4043 23.5369 63.9093 23.366 64.5826C23.0241 65.2559 22.6822 66.2658 21.9984 67.6124L14.8188 84.7811H14.135L7.1263 66.9391C6.27158 64.5826 5.41686 63.0677 4.90403 62.5627C4.56214 62.2261 4.04931 61.8895 3.53648 61.7211C3.02365 61.5528 2.33987 61.3845 1.6561 61.3845V61.0479H1.31421Z" fill="#3C3A37"/>
<path d="M38.5797 61.0479V61.3845C37.896 61.3845 37.3831 61.5528 36.8703 61.7211C36.5284 61.8895 36.0156 62.0578 35.6737 62.3944C35.1609 62.8994 34.9899 63.5727 34.819 64.4143C34.819 65.0875 34.648 65.7608 34.648 66.6024V79.3948C34.648 80.4047 34.648 81.078 34.819 81.7513C34.9899 82.2563 34.9899 82.7612 35.3318 83.0979C35.6737 83.6028 36.0156 83.9395 36.5284 84.1078C37.0412 84.2761 37.725 84.4444 38.4088 84.4444V84.7811H27.1265V84.4444C27.8103 84.4444 28.3231 84.2761 28.8359 84.1078C29.1778 83.9395 29.6907 83.7711 29.8616 83.4345C30.2035 83.0979 30.5454 82.5929 30.5454 82.0879C30.7163 81.583 30.7163 80.573 30.7163 79.3948V66.6024C30.7163 65.4242 30.7163 64.5826 30.5454 63.9093C30.3744 63.4043 30.2035 62.8994 29.8616 62.5627C29.5197 62.2261 29.1778 62.0578 28.665 61.8895C28.3231 61.7211 27.6393 61.7211 26.9556 61.5528V61.0479H38.5797Z" fill="#3C3A37"/>
<path d="M49.8621 61.5528C49.1783 61.5528 48.3236 61.5528 47.4689 61.5528C45.5885 61.7211 44.2209 61.8895 43.3662 62.2261C42.5115 62.5627 41.6568 63.236 41.144 64.0776C40.6311 64.9192 40.1183 65.9291 39.9474 67.444H39.6055L39.9474 61.0479H63.8795L64.2214 67.444H63.8795C63.5376 65.7608 63.0248 64.5826 62.341 63.741C61.6572 62.8994 60.6316 62.3944 59.4349 61.8895C58.4093 61.5528 56.5289 61.3845 53.7938 61.3845V79.2265C53.7938 80.4047 53.7938 81.2463 53.9647 81.9196C54.1357 82.4246 54.3066 82.9295 54.6485 83.2662C54.9904 83.6028 55.3323 83.7711 55.8451 83.9395C56.187 84.1078 56.8708 84.1078 57.5546 84.2761V84.6127H46.2723V84.2761C46.956 84.2761 47.4689 84.1078 47.9817 83.9395C48.3236 83.7711 48.8364 83.6028 49.1783 83.2662C49.5202 82.9295 49.8621 82.4246 49.8621 81.9196C50.033 81.4146 50.033 80.4047 50.033 79.2265V61.5528H49.8621Z" fill="#3C3A37"/>
<path d="M74.8201 61.5528C74.1363 61.5528 73.2816 61.5528 72.4269 61.5528C70.5465 61.7211 69.179 61.8895 68.3242 62.2261C67.4695 62.5627 66.6148 63.236 66.102 64.0776C65.5891 64.9192 65.0763 65.9291 64.9054 67.444H64.5635L64.9054 61.0479H88.8375L89.1794 67.444H88.8375C88.4956 65.7608 87.9828 64.5826 87.299 63.741C86.6152 62.8994 85.5896 62.3944 84.393 61.8895C83.3673 61.5528 81.4869 61.3845 78.7518 61.3845V79.2265C78.7518 80.4047 78.7518 81.2463 78.9228 81.9196C79.0937 82.4246 79.2646 82.9295 79.6065 83.2662C79.9484 83.6028 80.2903 83.7711 80.8031 83.9395C81.145 84.1078 81.8288 84.1078 82.5126 84.2761V84.6127H71.2303V84.2761C71.9141 84.2761 72.4269 84.1078 72.9397 83.9395C73.2816 83.7711 73.7944 83.6028 74.1363 83.2662C74.4782 82.9295 74.8201 82.4246 74.8201 81.9196C74.991 81.4146 74.991 80.4047 74.991 79.2265V61.5528H74.8201Z" fill="#3C3A37"/>
<path d="M95.1623 73.3353C95.1623 76.7017 96.017 79.5632 97.8974 81.9197C98.7521 82.9296 99.6068 83.7712 100.632 84.1078C101.487 84.6128 102.684 84.7811 103.88 84.7811C105.077 84.7811 106.274 84.6128 107.128 84.1078C108.154 83.6029 109.009 82.9296 109.863 81.9197C111.744 79.5632 112.599 76.7017 112.599 73.3353C112.599 71.4838 112.257 69.6323 111.744 67.9491C111.231 66.2659 110.547 64.9193 109.522 63.7411C108.838 62.7311 107.983 62.0579 106.957 61.7212C106.103 61.2163 104.906 61.0479 103.709 61.0479C102.513 61.0479 101.316 61.2163 100.462 61.7212C99.6068 62.2262 98.7521 62.8995 97.8974 63.7411C97.0426 64.9193 96.1879 66.2659 95.6751 67.9491C95.5041 69.6323 95.1623 71.4838 95.1623 73.3353ZM90.8887 73.167C90.8887 71.1472 91.2306 69.464 92.0853 67.7808C92.94 66.0975 94.1366 64.5827 95.846 63.4044C97.0427 62.5628 98.4102 61.7212 99.7777 61.2162C101.145 60.7113 102.513 60.543 104.051 60.543C105.932 60.543 107.641 60.8796 109.351 61.7212C111.06 62.5628 112.599 63.5727 113.795 65.0876C115.846 67.4441 116.872 69.9689 116.872 72.9987C116.872 74.5136 116.53 75.8601 116.017 77.375C115.505 78.7216 114.65 80.0682 113.624 81.0781C112.428 82.4247 110.889 83.6029 109.18 84.4445C107.47 85.2861 105.59 85.6227 103.709 85.6227C101.829 85.6227 100.12 85.2861 98.4102 84.4445C96.7008 83.7712 95.1623 82.593 93.9657 81.2464C92.94 80.2365 92.2562 78.8899 91.7434 77.5433C91.2306 76.0285 90.8887 74.5136 90.8887 73.167Z" fill="#3C3A37"/>
<path d="M126.958 72.8303H127.642C129.18 72.8303 130.206 72.8303 130.719 72.662C131.402 72.4937 131.915 72.157 132.428 71.6521C133.625 70.4738 134.308 69.1272 134.308 67.2757C134.308 66.4341 134.137 65.4242 133.796 64.7509C133.454 63.9093 132.941 63.236 132.257 62.7311C131.744 62.3944 131.231 62.0578 130.548 61.8895C129.864 61.7211 128.838 61.7211 127.642 61.7211H126.958V72.8303ZM126.958 73.1669V79.3948C126.958 80.573 126.958 81.4146 127.129 82.0879C127.3 82.5929 127.471 83.0979 127.813 83.4345C128.154 83.7711 128.496 83.9395 129.009 84.1078C129.351 84.2761 130.035 84.2761 130.719 84.4444V84.7811H119.436V84.4444C120.12 84.4444 120.633 84.2761 121.146 84.1078C121.488 83.9395 122 83.7711 122.171 83.4345C122.513 83.0979 122.855 82.5929 122.855 82.0879C123.026 81.583 123.026 80.573 123.026 79.3948V66.6024C123.026 65.4242 123.026 64.5826 122.855 63.9093C122.684 63.4043 122.513 62.8994 122.171 62.5627C121.83 62.2261 121.488 62.0578 120.975 61.8895C120.633 61.7211 119.949 61.7211 119.265 61.5528V61.0479H127.813C129.18 61.0479 130.206 61.0479 130.548 61.0479C132.428 61.0479 133.796 61.3845 134.821 61.7211C136.018 62.2261 136.873 62.8994 137.556 63.741C138.24 64.5826 138.582 65.7608 138.582 66.9391C138.582 68.7906 137.898 70.1372 136.531 71.3154C136.189 71.6521 135.676 71.9887 135.163 72.157C134.65 72.3253 133.967 72.4937 133.112 72.8303C133.796 73.1669 134.308 73.5036 134.65 73.6719C134.992 73.8402 135.163 74.1769 135.334 74.5135C135.505 74.8501 135.847 75.5234 136.36 76.5334C137.385 78.7215 138.24 80.2364 138.753 81.2463C139.266 82.2563 139.779 82.9295 140.121 83.4345C140.462 83.7711 140.633 84.1078 140.975 84.1078C141.317 84.2761 141.659 84.2761 142.172 84.4444V84.7811H136.36C136.018 84.1078 135.847 83.7711 135.847 83.6028L134.65 80.9097C133.967 79.2265 133.112 77.7116 132.428 76.5334C131.744 75.1868 131.061 74.3452 130.377 74.0085C130.035 73.8402 129.693 73.6719 129.351 73.5036C129.009 73.3353 128.496 73.3353 127.984 73.3353H126.958V73.1669Z" fill="#3C3A37"/>
<path d="M154.138 61.0479V61.3845C153.455 61.3845 152.942 61.5528 152.429 61.7211C152.087 61.8895 151.574 62.0578 151.232 62.3944C150.719 62.8994 150.549 63.5727 150.378 64.4143C150.378 65.0875 150.207 65.7608 150.207 66.6024V79.3948C150.207 80.4047 150.207 81.078 150.378 81.7513C150.549 82.2563 150.549 82.7612 150.89 83.0979C151.232 83.6028 151.574 83.9395 152.087 84.1078C152.6 84.2761 153.284 84.4444 153.967 84.4444V84.7811H142.685V84.4444C143.369 84.4444 143.882 84.2761 144.395 84.1078C144.736 83.9395 145.249 83.7711 145.42 83.4345C145.762 83.0979 146.104 82.5929 146.104 82.0879C146.275 81.583 146.275 80.573 146.275 79.3948V66.6024C146.275 65.4242 146.275 64.5826 146.104 63.9093C145.933 63.4043 145.762 62.8994 145.42 62.5627C145.078 62.2261 144.736 62.0578 144.224 61.8895C143.882 61.7211 143.198 61.7211 142.514 61.5528V61.0479H154.138Z" fill="#3C3A37"/>
<path d="M160.975 73.3353C160.975 76.7017 161.83 79.5632 163.711 81.9197C164.565 82.9296 165.42 83.7712 166.446 84.1078C167.3 84.6128 168.497 84.7811 169.694 84.7811C170.89 84.7811 172.087 84.6128 172.942 84.1078C173.967 83.6029 174.822 82.9296 175.677 81.9197C177.557 79.5632 178.412 76.7017 178.412 73.3353C178.412 71.4838 178.07 69.6323 177.557 67.9491C177.044 66.2659 176.36 64.9193 175.335 63.7411C174.651 62.7311 173.796 62.0579 172.771 61.7212C171.916 61.2163 170.719 61.0479 169.523 61.0479C168.326 61.0479 167.129 61.2163 166.275 61.7212C165.42 62.2262 164.565 62.8995 163.711 63.7411C162.856 64.9193 162.001 66.2659 161.488 67.9491C161.146 69.6323 160.975 71.4838 160.975 73.3353ZM156.702 73.167C156.702 71.1472 157.044 69.464 157.899 67.7808C158.753 66.0975 159.95 64.5827 161.659 63.4044C162.856 62.5628 164.223 61.7212 165.591 61.2162C166.959 60.7113 168.326 60.543 169.865 60.543C171.745 60.543 173.454 60.8796 175.164 61.7212C176.873 62.5628 178.412 63.5727 179.608 65.0876C181.66 67.4441 182.685 69.9689 182.685 72.9987C182.685 74.5136 182.343 75.8601 181.831 77.375C181.318 78.7216 180.463 80.0682 179.437 81.0781C178.241 82.4247 176.702 83.6029 174.993 84.4445C173.283 85.2861 171.403 85.6227 169.523 85.6227C167.642 85.6227 165.933 85.2861 164.223 84.4445C162.514 83.7712 160.975 82.593 159.779 81.2464C158.753 80.2365 158.069 78.8899 157.557 77.5433C157.044 76.0285 156.702 74.5136 156.702 73.167Z" fill="#3C3A37"/>
<path fill-rule="evenodd" clip-rule="evenodd" d="M97.2139 43.0375C98.4105 43.5424 99.2653 44.0474 100.12 44.7207C99.0943 43.5424 98.0686 42.5325 97.5558 42.0275C84.5641 31.255 79.6067 27.552 77.0426 22.334C74.4784 15.4329 75.8459 8.36341 81.1452 1.29395C80.9743 8.70005 83.0256 14.7596 85.9316 20.6508C88.1539 24.3539 95.8464 34.4531 98.7524 37.3146C103.539 42.1959 104.394 45.8989 104.223 49.9386C102.855 48.2554 99.2653 46.9088 97.5558 46.4039C86.1026 42.7008 81.829 41.5226 78.581 38.8294C74.9912 34.9581 73.9656 29.9085 75.675 23.8489C77.5554 28.8985 80.6324 32.2649 84.0513 35.463C86.6154 37.3146 94.4788 41.8592 97.2139 43.0375Z" fill="#3C3A37"/>
</svg>
