<svg width="140" height="68" viewBox="0 0 140 68" fill="none" xmlns="http://www.w3.org/2000/svg">
<path d="M1 47.1733H9.84448V47.4335C9.19415 47.4335 8.67389 47.5635 8.41376 47.6936C8.15363 47.8237 7.8935 48.0838 7.76343 48.3439C7.63336 48.6041 7.5033 48.9943 7.5033 49.2544C7.5033 49.5145 7.5033 49.6446 7.63336 49.9047C7.63336 50.0348 7.76343 50.425 8.02356 51.0753L12.0556 61.8708L15.9576 52.376C16.4778 51.0753 16.738 50.0348 16.738 49.5145C16.738 49.1243 16.738 48.8642 16.6079 48.6041C16.4778 48.3439 16.3478 48.0838 16.2177 47.9537C16.0877 47.8237 15.8275 47.6936 15.5674 47.6936C15.3073 47.6936 15.0471 47.5635 14.787 47.5635V47.1733H20.77V47.4335C20.2498 47.4335 19.8596 47.5635 19.4694 47.8237C19.0792 48.0838 18.819 48.3439 18.4288 48.7341C18.1687 48.9943 17.9086 49.3845 17.7785 49.9047C17.5184 50.425 17.2582 51.2054 16.738 52.2459L11.2752 65.5126H10.7549L5.42224 51.7256C4.77191 49.9047 4.12158 48.7341 3.73139 48.3439C3.47125 48.0838 3.08106 47.8237 2.69086 47.6936C2.30066 47.5635 1.7804 47.4335 1.26013 47.4335V47.1733H1Z" fill="#F8F5F1"/>
<path d="M29.3542 47.1733V47.4335C28.834 47.4335 28.4438 47.5635 28.0536 47.6936C27.7935 47.8237 27.4033 47.9537 27.1431 48.2139C26.7529 48.6041 26.6229 49.1243 26.4928 49.7747C26.4928 50.2949 26.3627 50.8152 26.3627 51.4655V61.3505C26.3627 62.1309 26.3627 62.6512 26.4928 63.1715C26.6229 63.5617 26.6229 63.9518 26.883 64.212C27.1431 64.6022 27.4033 64.8623 27.7935 64.9924C28.1837 65.1224 28.7039 65.2525 29.2242 65.2525V65.5126H20.6398V65.2525C21.1601 65.2525 21.5503 65.1224 21.9405 64.9924C22.2006 64.8623 22.5908 64.7322 22.7209 64.4721C22.981 64.212 23.2412 63.8218 23.2412 63.4316C23.3712 63.0414 23.3712 62.261 23.3712 61.3505V51.4655C23.3712 50.5551 23.3712 49.9047 23.2412 49.3845C23.1111 48.9943 22.981 48.6041 22.7209 48.3439C22.4608 48.0838 22.2006 47.9537 21.8104 47.8237C21.5503 47.6936 21.03 47.6936 20.5098 47.5635V47.1733H29.3542Z" fill="#F8F5F1"/>
<path d="M37.9387 47.5635C37.4185 47.5635 36.7681 47.5635 36.1178 47.5635C34.6871 47.6936 33.6465 47.8237 32.9962 48.0838C32.3459 48.3439 31.6956 48.8642 31.3054 49.5145C30.9152 50.1649 30.525 50.9453 30.3949 52.1158H30.1348L30.3949 47.1733H48.6041L48.8643 52.1158H48.6041C48.344 50.8152 47.9538 49.9047 47.4335 49.2544C46.9133 48.6041 46.1329 48.2139 45.2224 47.8237C44.442 47.5635 43.0113 47.4335 40.9302 47.4335V61.2205C40.9302 62.1309 40.9302 62.7813 41.0603 63.3015C41.1904 63.6917 41.3204 64.0819 41.5806 64.342C41.8407 64.6022 42.1008 64.7322 42.491 64.8623C42.7512 64.9924 43.2714 64.9924 43.7917 65.1224V65.3826H35.2073V65.1224C35.7276 65.1224 36.1178 64.9924 36.508 64.8623C36.7681 64.7322 37.1583 64.6022 37.4185 64.342C37.6786 64.0819 37.9387 63.6917 37.9387 63.3015C38.0688 62.9113 38.0688 62.1309 38.0688 61.2205V47.5635H37.9387Z" fill="#F8F5F1"/>
<path d="M56.9285 47.5635C56.4082 47.5635 55.7579 47.5635 55.1075 47.5635C53.6768 47.6936 52.6363 47.8237 51.986 48.0838C51.3356 48.3439 50.6853 48.8642 50.2951 49.5145C49.9049 50.1649 49.5147 50.9453 49.3846 52.1158H49.1245L49.3846 47.1733H67.5939L67.854 52.1158H67.5939C67.3337 50.8152 66.9436 49.9047 66.4233 49.2544C65.903 48.6041 65.1226 48.2139 64.2122 47.8237C63.4318 47.5635 62.001 47.4335 59.92 47.4335V61.2205C59.92 62.1309 59.92 62.7813 60.0501 63.3015C60.1801 63.6917 60.3102 64.0819 60.5703 64.342C60.8304 64.6022 61.0906 64.7322 61.4808 64.8623C61.7409 64.9924 62.2612 64.9924 62.7814 65.1224V65.3826H54.1971V65.1224C54.7173 65.1224 55.1075 64.9924 55.4977 64.8623C55.7579 64.7322 56.1481 64.6022 56.4082 64.342C56.6683 64.0819 56.9285 63.6917 56.9285 63.3015C57.0585 62.9113 57.0585 62.1309 57.0585 61.2205V47.5635H56.9285Z" fill="#F8F5F1"/>
<path d="M72.4059 56.6682C72.4059 59.2695 73.0563 61.4807 74.487 63.3016C75.1373 64.082 75.7877 64.7323 76.5681 64.9924C77.2184 65.3826 78.1288 65.5127 79.0393 65.5127C79.9498 65.5127 80.8602 65.3826 81.5106 64.9924C82.291 64.6022 82.9413 64.082 83.5916 63.3016C85.0223 61.4807 85.6727 59.2695 85.6727 56.6682C85.6727 55.2375 85.4125 53.8068 85.0223 52.5061C84.6321 51.2054 84.1119 50.1649 83.3315 49.2545C82.8112 48.4741 82.1609 47.9538 81.3805 47.6937C80.7302 47.3035 79.8197 47.1734 78.9092 47.1734C77.9988 47.1734 77.0883 47.3035 76.438 47.6937C75.7877 48.0839 75.1373 48.6041 74.487 49.2545C73.8367 50.1649 73.1863 51.2054 72.7961 52.5061C72.6661 53.8068 72.4059 55.2375 72.4059 56.6682ZM69.1543 56.5381C69.1543 54.9774 69.4144 53.6767 70.0648 52.376C70.7151 51.0754 71.6256 49.9048 72.9262 48.9943C73.8367 48.344 74.8772 47.6937 75.9177 47.3035C76.9582 46.9133 77.9988 46.7832 79.1694 46.7832C80.6001 46.7832 81.9008 47.0433 83.2014 47.6937C84.5021 48.344 85.6727 49.1244 86.5831 50.295C88.1439 52.1159 88.9243 54.0669 88.9243 56.4081C88.9243 57.5787 88.6642 58.6192 88.274 59.7898C87.8838 60.8303 87.2335 61.8709 86.4531 62.6513C85.5426 63.6918 84.372 64.6022 83.0713 65.2526C81.7707 65.9029 80.34 66.163 78.9092 66.163C77.4785 66.163 76.1779 65.9029 74.8772 65.2526C73.5765 64.7323 72.4059 63.8218 71.4955 62.7813C70.7151 62.0009 70.1948 60.9604 69.8046 59.9199C69.4144 58.7493 69.1543 57.5787 69.1543 56.5381Z" fill="#F8F5F1"/>
<path d="M96.5986 56.278H97.1188C98.2894 56.278 99.0698 56.278 99.46 56.1479C99.9803 56.0178 100.37 55.7577 100.761 55.3675C101.671 54.457 102.191 53.4165 102.191 51.9858C102.191 51.3355 102.061 50.5551 101.801 50.0348C101.541 49.3845 101.151 48.8642 100.631 48.474C100.24 48.2139 99.8502 47.9537 99.33 47.8237C98.8097 47.6936 98.0293 47.6936 97.1188 47.6936H96.5986V56.278ZM96.5986 56.5381V61.3505C96.5986 62.261 96.5986 62.9113 96.7286 63.4316C96.8587 63.8218 96.9888 64.212 97.2489 64.4721C97.509 64.7322 97.7692 64.8623 98.1594 64.9924C98.4195 65.1224 98.9398 65.1224 99.46 65.2525V65.5126H90.8757V65.2525C91.3959 65.2525 91.7861 65.1224 92.1763 64.9924C92.4365 64.8623 92.8267 64.7322 92.9567 64.4721C93.2169 64.212 93.477 63.8218 93.477 63.4316C93.6071 63.0414 93.6071 62.261 93.6071 61.3505V51.4655C93.6071 50.5551 93.6071 49.9047 93.477 49.3845C93.3469 48.9943 93.2169 48.6041 92.9567 48.3439C92.6966 48.0838 92.4365 47.9537 92.0463 47.8237C91.7861 47.6936 91.2659 47.6936 90.7456 47.5635V47.1733H97.2489C98.2894 47.1733 99.0698 47.1733 99.33 47.1733C100.761 47.1733 101.801 47.4335 102.582 47.6936C103.492 48.0838 104.142 48.6041 104.663 49.2544C105.183 49.9047 105.443 50.8152 105.443 51.7256C105.443 53.1564 104.923 54.1969 103.882 55.1074C103.622 55.3675 103.232 55.6276 102.842 55.7577C102.452 55.8878 101.931 56.0178 101.281 56.278C101.801 56.5381 102.191 56.7982 102.452 56.9283C102.712 57.0584 102.842 57.3185 102.972 57.5786C103.102 57.8387 103.362 58.359 103.752 59.1394C104.533 60.8303 105.183 62.0009 105.573 62.7813C105.963 63.5616 106.354 64.0819 106.614 64.4721C106.874 64.7322 107.004 64.9924 107.264 64.9924C107.524 65.1224 107.784 65.1224 108.174 65.2525V65.5126H103.752C103.492 64.9924 103.362 64.7322 103.362 64.6022L102.452 62.5211C101.931 61.2205 101.281 60.0499 100.761 59.1394C100.24 58.0989 99.7202 57.4486 99.1999 57.1884C98.9398 57.0584 98.6796 56.9283 98.4195 56.7982C98.1594 56.6682 97.7692 56.6682 97.379 56.6682H96.5986V56.5381Z" fill="#F8F5F1"/>
<path d="M117.279 47.1733V47.4335C116.759 47.4335 116.369 47.5635 115.978 47.6936C115.718 47.8237 115.328 47.9537 115.068 48.2139C114.678 48.6041 114.548 49.1243 114.418 49.7747C114.418 50.2949 114.288 50.8152 114.288 51.4655V61.3505C114.288 62.1309 114.288 62.6512 114.418 63.1715C114.548 63.5617 114.548 63.9518 114.808 64.212C115.068 64.6022 115.328 64.8623 115.718 64.9924C116.108 65.1224 116.629 65.2525 117.149 65.2525V65.5126H108.565V65.2525C109.085 65.2525 109.475 65.1224 109.865 64.9924C110.125 64.8623 110.516 64.7322 110.646 64.4721C110.906 64.212 111.166 63.8218 111.166 63.4316C111.296 63.0414 111.296 62.261 111.296 61.3505V51.4655C111.296 50.5551 111.296 49.9047 111.166 49.3845C111.036 48.9943 110.906 48.6041 110.646 48.3439C110.386 48.0838 110.125 47.9537 109.735 47.8237C109.475 47.6936 108.955 47.6936 108.435 47.5635V47.1733H117.279Z" fill="#F8F5F1"/>
<path d="M122.482 56.6682C122.482 59.2695 123.132 61.4807 124.563 63.3016C125.213 64.082 125.863 64.7323 126.644 64.9924C127.294 65.3826 128.205 65.5127 129.115 65.5127C130.025 65.5127 130.936 65.3826 131.586 64.9924C132.367 64.6022 133.017 64.082 133.667 63.3016C135.098 61.4807 135.748 59.2695 135.748 56.6682C135.748 55.2375 135.488 53.8068 135.098 52.5061C134.708 51.2054 134.188 50.1649 133.407 49.2545C132.887 48.4741 132.237 47.9538 131.456 47.6937C130.806 47.3035 129.895 47.1734 128.985 47.1734C128.074 47.1734 127.164 47.3035 126.514 47.6937C125.863 48.0839 125.213 48.6041 124.563 49.2545C123.912 50.1649 123.262 51.2054 122.872 52.5061C122.612 53.8068 122.482 55.2375 122.482 56.6682ZM119.23 56.5381C119.23 54.9774 119.49 53.6767 120.14 52.376C120.791 51.0754 121.701 49.9048 123.002 48.9943C123.912 48.344 124.953 47.6937 125.993 47.3035C127.034 46.9133 128.074 46.7832 129.245 46.7832C130.676 46.7832 131.976 47.0433 133.277 47.6937C134.578 48.344 135.748 49.1244 136.659 50.295C138.22 52.1159 139 54.0669 139 56.4081C139 57.5787 138.74 58.6192 138.35 59.7898C137.959 60.8303 137.309 61.8709 136.529 62.6513C135.618 63.6918 134.448 64.6022 133.147 65.2526C131.846 65.9029 130.416 66.163 128.985 66.163C127.554 66.163 126.254 65.9029 124.953 65.2526C123.652 64.7323 122.482 63.8218 121.571 62.7813C120.791 62.0009 120.271 60.9604 119.88 59.9199C119.49 58.7493 119.23 57.5787 119.23 56.5381Z" fill="#F8F5F1"/>
<path fill-rule="evenodd" clip-rule="evenodd" d="M73.9674 33.2564C74.8778 33.6466 75.5282 34.0368 76.1785 34.557C75.3981 33.6466 74.6177 32.8662 74.2275 32.476C64.3425 24.1517 60.5706 21.2903 58.6196 17.2582C56.6686 11.9255 57.7091 6.46277 61.7412 1C61.6111 6.7229 63.1719 11.4053 65.383 15.9576C67.0739 18.819 72.9268 26.623 75.1379 28.8341C78.7798 32.606 79.4301 35.4675 79.3001 38.5891C78.2595 37.2884 75.5282 36.2479 74.2275 35.8577C65.5131 32.9962 62.2614 32.0858 59.7902 30.0047C57.0588 27.0132 56.2784 23.1112 57.579 18.4288C59.0098 22.3308 61.351 24.9321 63.9523 27.4034C65.9033 28.8341 71.8863 32.3459 73.9674 33.2564Z" fill="#F8F5F1"/>
</svg>
