<svg width="108" height="52" viewBox="0 0 108 52" fill="none" xmlns="http://www.w3.org/2000/svg">
<path d="M0.771484 36.0742H7.59437V36.2731C7.09269 36.2731 6.69134 36.3726 6.49067 36.4721C6.29 36.5715 6.08932 36.7705 5.98899 36.9694C5.88865 37.1683 5.78831 37.4667 5.78831 37.6656C5.78831 37.8645 5.78831 37.964 5.88865 38.1629C5.88865 38.2624 5.98899 38.5608 6.18966 39.0581L9.30009 47.3134L12.3102 40.0527C12.7115 39.0581 12.9122 38.2624 12.9122 37.8645C12.9122 37.5662 12.9122 37.3672 12.8119 37.1683C12.7115 36.9694 12.6112 36.7705 12.5109 36.671C12.4105 36.5715 12.2099 36.4721 12.0092 36.4721C11.8085 36.4721 11.6078 36.3726 11.4072 36.3726V36.0742H16.0226V36.2731C15.6213 36.2731 15.3203 36.3726 15.0193 36.5715C14.7183 36.7705 14.5176 36.9694 14.2166 37.2678C14.0159 37.4667 13.8152 37.7651 13.7149 38.1629C13.5142 38.5608 13.3136 39.1575 12.9122 39.9532L8.69807 50.0984H8.29673L4.18293 39.5554C3.68125 38.1629 3.17956 37.2678 2.87855 36.9694C2.67788 36.7705 2.37687 36.5715 2.07586 36.4721C1.77485 36.3726 1.3735 36.2731 0.972157 36.2731V36.0742H0.771484Z" fill="#F8F5F1"/>
<path d="M22.6449 36.0742V36.2731C22.2436 36.2731 21.9426 36.3726 21.6415 36.4721C21.4409 36.5715 21.1399 36.671 20.9392 36.8699C20.6382 37.1683 20.5378 37.5662 20.4375 38.0635C20.4375 38.4613 20.3372 38.8592 20.3372 39.3565V46.9156C20.3372 47.5124 20.3372 47.9102 20.4375 48.3081C20.5378 48.6065 20.5378 48.9048 20.7385 49.1038C20.9392 49.4022 21.1399 49.6011 21.4409 49.7005C21.7419 49.8 22.1432 49.8995 22.5446 49.8995V50.0984H15.9224V49.8995C16.3237 49.8995 16.6247 49.8 16.9257 49.7005C17.1264 49.6011 17.4274 49.5016 17.5277 49.3027C17.7284 49.1038 17.9291 48.8054 17.9291 48.507C18.0294 48.2086 18.0294 47.6118 18.0294 46.9156V39.3565C18.0294 38.6602 18.0294 38.1629 17.9291 37.7651C17.8288 37.4667 17.7284 37.1683 17.5277 36.9694C17.3271 36.7705 17.1264 36.671 16.8254 36.5715C16.6247 36.4721 16.2234 36.4721 15.822 36.3726V36.0742H22.6449Z" fill="#F8F5F1"/>
<path d="M29.267 36.3726C28.8657 36.3726 28.364 36.3726 27.8623 36.3726C26.7586 36.4721 25.9559 36.5715 25.4542 36.7705C24.9525 36.9694 24.4509 37.3672 24.1499 37.8645C23.8488 38.3618 23.5478 38.9586 23.4475 39.8538H23.2468L23.4475 36.0742H37.4946L37.6953 39.8538H37.4946C37.2939 38.8592 36.9929 38.1629 36.5916 37.6656C36.1902 37.1683 35.5882 36.8699 34.8859 36.5715C34.2838 36.3726 33.1801 36.2731 31.5748 36.2731V46.8161C31.5748 47.5124 31.5748 48.0097 31.6751 48.4075C31.7754 48.7059 31.8758 49.0043 32.0764 49.2032C32.2771 49.4022 32.4778 49.5016 32.7788 49.6011C32.9795 49.7005 33.3808 49.7005 33.7822 49.8V49.9989H27.16V49.8C27.5613 49.8 27.8623 49.7005 28.1633 49.6011C28.364 49.5016 28.665 49.4022 28.8657 49.2032C29.0663 49.0043 29.267 48.7059 29.267 48.4075C29.3674 48.1091 29.3674 47.5124 29.3674 46.8161V36.3726H29.267Z" fill="#F8F5F1"/>
<path d="M43.9162 36.3726C43.5148 36.3726 43.0132 36.3726 42.5115 36.3726C41.4078 36.4721 40.6051 36.5715 40.1034 36.7705C39.6017 36.9694 39.1 37.3672 38.799 37.8645C38.498 38.3618 38.197 38.9586 38.0967 39.8538H37.896L38.0967 36.0742H52.1438L52.3445 39.8538H52.1438C51.9431 38.8592 51.6421 38.1629 51.2408 37.6656C50.8394 37.1683 50.2374 36.8699 49.535 36.5715C48.933 36.3726 47.8293 36.2731 46.2239 36.2731V46.8161C46.2239 47.5124 46.2239 48.0097 46.3243 48.4075C46.4246 48.7059 46.5249 49.0043 46.7256 49.2032C46.9263 49.4022 47.127 49.5016 47.428 49.6011C47.6286 49.7005 48.03 49.7005 48.4313 49.8V49.9989H41.8091V49.8C42.2105 49.8 42.5115 49.7005 42.8125 49.6011C43.0132 49.5016 43.3142 49.4022 43.5148 49.2032C43.7155 49.0043 43.9162 48.7059 43.9162 48.4075C44.0165 48.1091 44.0165 47.5124 44.0165 46.8161V36.3726H43.9162Z" fill="#F8F5F1"/>
<path d="M55.8563 43.3345C55.8563 45.3238 56.358 47.0146 57.4617 48.4071C57.9634 49.0039 58.4651 49.5012 59.0671 49.7001C59.5688 49.9985 60.2711 50.0979 60.9735 50.0979C61.6758 50.0979 62.3782 49.9985 62.8799 49.7001C63.4819 49.4017 63.9836 49.0039 64.4853 48.4071C65.589 47.0146 66.0906 45.3238 66.0906 43.3345C66.0906 42.2404 65.89 41.1463 65.589 40.1517C65.288 39.1571 64.8866 38.3614 64.2846 37.6652C63.8832 37.0684 63.3816 36.6706 62.7795 36.4716C62.2779 36.1732 61.5755 36.0738 60.8731 36.0738C60.1708 36.0738 59.4684 36.1732 58.9667 36.4716C58.4651 36.77 57.9634 37.1679 57.4617 37.6652C56.96 38.3614 56.4583 39.1571 56.1573 40.1517C56.057 41.1463 55.8563 42.2404 55.8563 43.3345ZM53.3479 43.2351C53.3479 42.0415 53.5486 41.0469 54.0503 40.0523C54.5519 39.0576 55.2543 38.1625 56.2577 37.4662C56.96 36.9689 57.7627 36.4716 58.5654 36.1732C59.3681 35.8749 60.1708 35.7754 61.0738 35.7754C62.1775 35.7754 63.1809 35.9743 64.1843 36.4716C65.1876 36.9689 66.0907 37.5657 66.793 38.4609C67.997 39.8533 68.5991 41.3453 68.5991 43.1356C68.5991 44.0308 68.3984 44.8265 68.0974 45.7216C67.7964 46.5173 67.2947 47.313 66.6927 47.9098C65.9903 48.7055 65.0873 49.4017 64.0839 49.899C63.0805 50.3963 61.9769 50.5953 60.8731 50.5953C59.7694 50.5953 58.7661 50.3963 57.7627 49.899C56.7593 49.5012 55.8563 48.8049 55.154 48.0092C54.5519 47.4125 54.1506 46.6168 53.8496 45.8211C53.5486 44.9259 53.3479 44.0308 53.3479 43.2351Z" fill="#F8F5F1"/>
<path d="M74.5188 43.0366H74.9202C75.8232 43.0366 76.4252 43.0366 76.7262 42.9371C77.1276 42.8377 77.4286 42.6387 77.7296 42.3403C78.4319 41.6441 78.8333 40.8484 78.8333 39.7543C78.8333 39.257 78.7329 38.6602 78.5323 38.2624C78.3316 37.7651 78.0306 37.3672 77.6292 37.0688C77.3282 36.8699 77.0272 36.671 76.6259 36.5715C76.2245 36.4721 75.6225 36.4721 74.9202 36.4721H74.5188V43.0366ZM74.5188 43.2355V46.9156C74.5188 47.6118 74.5188 48.1091 74.6191 48.507C74.7195 48.8054 74.8198 49.1038 75.0205 49.3027C75.2212 49.5016 75.4218 49.6011 75.7228 49.7005C75.9235 49.8 76.3249 49.8 76.7262 49.8995V50.0984H70.104V49.8995C70.5053 49.8995 70.8064 49.8 71.1074 49.7005C71.308 49.6011 71.609 49.5016 71.7094 49.3027C71.9101 49.1038 72.1107 48.8054 72.1107 48.507C72.2111 48.2086 72.2111 47.6118 72.2111 46.9156V39.3565C72.2111 38.6602 72.2111 38.1629 72.1107 37.7651C72.0104 37.4667 71.9101 37.1683 71.7094 36.9694C71.5087 36.7705 71.308 36.671 71.007 36.5715C70.8064 36.4721 70.405 36.4721 70.0037 36.3726V36.0742H75.0205C75.8232 36.0742 76.4252 36.0742 76.6259 36.0742C77.7296 36.0742 78.5323 36.2731 79.1343 36.4721C79.8366 36.7705 80.3383 37.1683 80.7397 37.6656C81.141 38.1629 81.3417 38.8592 81.3417 39.5554C81.3417 40.6495 80.9403 41.4452 80.1377 42.1414C79.937 42.3403 79.636 42.5393 79.335 42.6387C79.034 42.7382 78.6326 42.8376 78.1309 43.0366C78.5323 43.2355 78.8333 43.4344 79.034 43.5339C79.2346 43.6333 79.335 43.8323 79.4353 44.0312C79.5356 44.2301 79.7363 44.628 80.0373 45.2247C80.6393 46.5178 81.141 47.4129 81.442 48.0097C81.743 48.6065 82.044 49.0043 82.2447 49.3027C82.4454 49.5016 82.5457 49.7005 82.7464 49.7005C82.9471 49.8 83.1478 49.8 83.4488 49.8995V50.0984H80.0373C79.8366 49.7005 79.7363 49.5016 79.7363 49.4022L79.034 47.8108C78.6326 46.8161 78.1309 45.921 77.7296 45.2247C77.3282 44.429 76.9269 43.9317 76.5255 43.7328C76.3249 43.6333 76.1242 43.5339 75.9235 43.4344C75.7228 43.335 75.4218 43.335 75.1208 43.335H74.5188V43.2355Z" fill="#F8F5F1"/>
<path d="M90.4725 36.0742V36.2731C90.0712 36.2731 89.7702 36.3726 89.4692 36.4721C89.2685 36.5715 88.9675 36.671 88.7668 36.8699C88.4658 37.1683 88.3655 37.5662 88.2651 38.0635C88.2651 38.4613 88.1648 38.8592 88.1648 39.3565V46.9156C88.1648 47.5124 88.1648 47.9102 88.2651 48.3081C88.3655 48.6065 88.3655 48.9048 88.5662 49.1038C88.7668 49.4022 88.9675 49.6011 89.2685 49.7005C89.5695 49.8 89.9709 49.8995 90.3722 49.8995V50.0984H83.75V49.8995C84.1513 49.8995 84.4523 49.8 84.7534 49.7005C84.954 49.6011 85.255 49.5016 85.3554 49.3027C85.5561 49.1038 85.7567 48.8054 85.7567 48.507C85.8571 48.2086 85.8571 47.6118 85.8571 46.9156V39.3565C85.8571 38.6602 85.8571 38.1629 85.7567 37.7651C85.6564 37.4667 85.5561 37.1683 85.3554 36.9694C85.1547 36.7705 84.954 36.671 84.653 36.5715C84.4524 36.4721 84.051 36.4721 83.6497 36.3726V36.0742H90.4725Z" fill="#F8F5F1"/>
<path d="M94.4857 43.3345C94.4857 45.3238 94.9874 47.0146 96.0911 48.4071C96.5928 49.0039 97.0945 49.5012 97.6965 49.7001C98.1982 49.9985 98.9005 50.0979 99.6029 50.0979C100.305 50.0979 101.008 49.9985 101.509 49.7001C102.111 49.4017 102.613 49.0039 103.115 48.4071C104.218 47.0146 104.72 45.3238 104.72 43.3345C104.72 42.2404 104.519 41.1463 104.218 40.1517C103.917 39.1571 103.516 38.3614 102.914 37.6652C102.513 37.0684 102.011 36.6706 101.409 36.4716C100.907 36.1732 100.205 36.0738 99.5025 36.0738C98.8002 36.0738 98.0978 36.1732 97.5961 36.4716C97.0945 36.77 96.5928 37.1679 96.0911 37.6652C95.5894 38.3614 95.0877 39.1571 94.7867 40.1517C94.586 41.1463 94.4857 42.2404 94.4857 43.3345ZM91.9773 43.2351C91.9773 42.0415 92.178 41.0469 92.6796 40.0523C93.1813 39.0576 93.8837 38.1625 94.8871 37.4662C95.5894 36.9689 96.3921 36.4716 97.1948 36.1732C97.9975 35.8749 98.8002 35.7754 99.7032 35.7754C100.807 35.7754 101.81 35.9743 102.814 36.4716C103.817 36.9689 104.72 37.5657 105.422 38.4609C106.626 39.8533 107.228 41.3453 107.228 43.1356C107.228 44.0308 107.028 44.8265 106.727 45.7216C106.426 46.5173 105.924 47.313 105.322 47.9098C104.62 48.7055 103.717 49.4017 102.713 49.899C101.71 50.3963 100.606 50.5953 99.5025 50.5953C98.3988 50.5953 97.3955 50.3963 96.3921 49.899C95.3887 49.5012 94.4857 48.8049 93.7833 48.0092C93.1813 47.4125 92.78 46.6168 92.479 45.8211C92.178 44.9259 91.9773 44.0308 91.9773 43.2351Z" fill="#F8F5F1"/>
<path fill-rule="evenodd" clip-rule="evenodd" d="M57.0604 25.4313C57.7628 25.7297 58.2645 26.028 58.7662 26.4259C58.1641 25.7297 57.5621 25.1329 57.2611 24.8345C49.6355 18.4689 46.7258 16.2808 45.2207 13.1974C43.7157 9.11947 44.5184 4.94206 47.6288 0.764648C47.5285 5.14099 48.7325 8.72162 50.4382 12.2028C51.7426 14.391 56.2577 20.3587 57.9635 22.0496C60.7729 24.934 61.2746 27.1221 61.1742 29.5092C60.3715 28.5146 58.2645 27.7189 57.2611 27.4205C50.5386 25.2323 48.0301 24.5361 46.1237 22.9447C44.0167 20.6571 43.4146 17.6732 44.418 14.0926C45.5217 17.0764 47.3278 19.0657 49.3345 20.9555C50.8396 22.0496 55.455 24.735 57.0604 25.4313Z" fill="#F8F5F1"/>
</svg>
