<svg width="83" height="40" viewBox="0 0 83 40" fill="none" xmlns="http://www.w3.org/2000/svg">
<path d="M1.08569 27.749H6.26603V27.902C5.88513 27.902 5.5804 27.9786 5.42804 28.0551C5.27568 28.1316 5.12331 28.2846 5.04713 28.4376C4.97095 28.5906 4.89477 28.8202 4.89477 28.9732C4.89477 29.1262 4.89477 29.2027 4.97095 29.3557C4.97095 29.4322 5.04713 29.6618 5.19949 30.0443L7.56112 36.3946L9.84656 30.8094C10.1513 30.0443 10.3037 29.4322 10.3037 29.1262C10.3037 28.8967 10.3037 28.7436 10.2275 28.5906C10.1513 28.4376 10.0751 28.2846 9.99893 28.2081C9.92275 28.1316 9.77038 28.0551 9.61802 28.0551C9.46566 28.0551 9.31329 27.9786 9.16093 27.9786V27.749H12.6653V27.902C12.3606 27.902 12.132 27.9786 11.9035 28.1316C11.6749 28.2846 11.5226 28.4376 11.294 28.6671C11.1416 28.8202 10.9893 29.0497 10.9131 29.3557C10.7607 29.6618 10.6084 30.1208 10.3037 30.7329L7.10403 38.5368H6.7993L3.67586 30.4269C3.29496 29.3557 2.91405 28.6671 2.6855 28.4376C2.53314 28.2846 2.3046 28.1316 2.07605 28.0551C1.84751 27.9786 1.54278 27.902 1.23806 27.902V27.749H1.08569Z" fill="#3C3A37"/>
<path d="M17.6933 27.749V27.902C17.3886 27.902 17.16 27.9786 16.9315 28.0551C16.7791 28.1316 16.5506 28.2081 16.3982 28.3611C16.1696 28.5906 16.0935 28.8967 16.0173 29.2792C16.0173 29.5852 15.9411 29.8913 15.9411 30.2738V36.0885C15.9411 36.5476 15.9411 36.8536 16.0173 37.1597C16.0935 37.3892 16.0935 37.6187 16.2458 37.7717C16.3982 38.0013 16.5506 38.1543 16.7791 38.2308C17.0076 38.3073 17.3124 38.3838 17.6171 38.3838V38.5368H12.5891V38.3838C12.8938 38.3838 13.1224 38.3073 13.3509 38.2308C13.5033 38.1543 13.7318 38.0778 13.808 37.9248C13.9604 37.7718 14.1128 37.5422 14.1128 37.3127C14.1889 37.0832 14.1889 36.6241 14.1889 36.0885V30.2738C14.1889 29.7383 14.1889 29.3557 14.1128 29.0497C14.0366 28.8202 13.9604 28.5906 13.808 28.4376C13.6557 28.2846 13.5033 28.2081 13.2748 28.1316C13.1224 28.0551 12.8177 28.0551 12.5129 27.9786V27.749H17.6933Z" fill="#3C3A37"/>
<path d="M22.7213 27.9786C22.4166 27.9786 22.0356 27.9786 21.6547 27.9786C20.8167 28.0551 20.2073 28.1316 19.8264 28.2846C19.4455 28.4376 19.0646 28.7436 18.836 29.1262C18.6075 29.5087 18.3789 29.9678 18.3028 30.6564H18.1504L18.3028 27.749H28.9682L29.1205 30.6564H28.9682C28.8158 29.8913 28.5873 29.3557 28.2825 28.9732C27.9778 28.5906 27.5207 28.3611 26.9874 28.1316C26.5304 27.9786 25.6924 27.902 24.4735 27.902V36.012C24.4735 36.5476 24.4735 36.9302 24.5496 37.2362C24.6258 37.4657 24.702 37.6952 24.8544 37.8483C25.0067 38.0013 25.1591 38.0778 25.3876 38.1543C25.54 38.2308 25.8447 38.2308 26.1494 38.3073V38.4603H21.1215V38.3073C21.4262 38.3073 21.6547 38.2308 21.8833 38.1543C22.0356 38.0778 22.2642 38.0013 22.4166 37.8483C22.5689 37.6952 22.7213 37.4657 22.7213 37.2362C22.7975 37.0067 22.7975 36.5476 22.7975 36.012V27.9786H22.7213Z" fill="#3C3A37"/>
<path d="M33.8438 27.9786C33.5391 27.9786 33.1582 27.9786 32.7773 27.9786C31.9393 28.0551 31.3299 28.1316 30.9489 28.2846C30.568 28.4376 30.1871 28.7436 29.9586 29.1262C29.73 29.5087 29.5015 29.9678 29.4253 30.6564H29.2729L29.4253 27.749H40.0907L40.2431 30.6564H40.0907C39.9384 29.8913 39.7098 29.3557 39.4051 28.9732C39.1004 28.5906 38.6433 28.3611 38.11 28.1316C37.6529 27.9786 36.8149 27.902 35.596 27.902V36.012C35.596 36.5476 35.596 36.9302 35.6722 37.2362C35.7484 37.4657 35.8246 37.6952 35.9769 37.8483C36.1293 38.0013 36.2816 38.0778 36.5102 38.1543C36.6626 38.2308 36.9673 38.2308 37.272 38.3073V38.4603H32.244V38.3073C32.5488 38.3073 32.7773 38.2308 33.0058 38.1543C33.1582 38.0778 33.3867 38.0013 33.5391 37.8483C33.6915 37.6952 33.8438 37.4657 33.8438 37.2362C33.92 37.0067 33.92 36.5476 33.92 36.012V27.9786H33.8438Z" fill="#3C3A37"/>
<path d="M42.9092 33.3342C42.9092 34.8644 43.2901 36.1651 44.1281 37.2362C44.509 37.6953 44.8899 38.0778 45.347 38.2308C45.7279 38.4604 46.2612 38.5369 46.7944 38.5369C47.3277 38.5369 47.861 38.4604 48.2419 38.2308C48.699 38.0013 49.0799 37.6953 49.4608 37.2362C50.2988 36.1651 50.6797 34.8644 50.6797 33.3342C50.6797 32.4926 50.5273 31.651 50.2988 30.8859C50.0702 30.1208 49.7655 29.5088 49.3084 28.9732C49.0037 28.5142 48.6228 28.2081 48.1657 28.0551C47.7848 27.8256 47.2515 27.7491 46.7182 27.7491C46.185 27.7491 45.6517 27.8256 45.2708 28.0551C44.8899 28.2846 44.509 28.5907 44.1281 28.9732C43.7472 29.5088 43.3663 30.1208 43.1377 30.8859C43.0615 31.651 42.9092 32.4926 42.9092 33.3342ZM41.0046 33.2577C41.0046 32.3396 41.157 31.5745 41.5379 30.8094C41.9188 30.0443 42.4521 29.3558 43.2139 28.8202C43.7472 28.4376 44.3566 28.0551 44.9661 27.8256C45.5755 27.596 46.185 27.5195 46.8706 27.5195C47.7086 27.5195 48.4704 27.6726 49.2322 28.0551C49.994 28.4376 50.6797 28.8967 51.213 29.5853C52.1271 30.6564 52.5842 31.8041 52.5842 33.1812C52.5842 33.8698 52.4319 34.4819 52.2033 35.1705C51.9748 35.7825 51.5939 36.3946 51.1368 36.8537C50.6035 37.4658 49.9179 38.0013 49.1561 38.3839C48.3942 38.7664 47.5562 38.9194 46.7182 38.9194C45.8803 38.9194 45.1184 38.7664 44.3566 38.3839C43.5948 38.0778 42.9092 37.5423 42.3759 36.9302C41.9188 36.4711 41.6141 35.8591 41.3855 35.247C41.157 34.5584 41.0046 33.8698 41.0046 33.2577Z" fill="#3C3A37"/>
<path d="M57.079 33.1047H57.3838C58.0694 33.1047 58.5265 33.1047 58.755 33.0282C59.0598 32.9517 59.2883 32.7986 59.5169 32.5691C60.0501 32.0335 60.3549 31.4215 60.3549 30.5799C60.3549 30.1973 60.2787 29.7383 60.1263 29.4322C59.9739 29.0497 59.7454 28.7436 59.4407 28.5141C59.2121 28.3611 58.9836 28.2081 58.6789 28.1316C58.3741 28.0551 57.917 28.0551 57.3838 28.0551H57.079V33.1047ZM57.079 33.2577V36.0885C57.079 36.6241 57.079 37.0067 57.1552 37.3127C57.2314 37.5422 57.3076 37.7718 57.46 37.9248C57.6123 38.0778 57.7647 38.1543 57.9932 38.2308C58.1456 38.3073 58.4503 38.3073 58.755 38.3838V38.5368H53.7271V38.3838C54.0318 38.3838 54.2603 38.3073 54.4889 38.2308C54.6412 38.1543 54.8698 38.0778 54.946 37.9248C55.0983 37.7718 55.2507 37.5422 55.2507 37.3127C55.3269 37.0832 55.3269 36.6241 55.3269 36.0885V30.2738C55.3269 29.7383 55.3269 29.3557 55.2507 29.0497C55.1745 28.8202 55.0983 28.5906 54.946 28.4376C54.7936 28.2846 54.6412 28.2081 54.4127 28.1316C54.2603 28.0551 53.9556 28.0551 53.6509 27.9786V27.749H57.46C58.0694 27.749 58.5265 27.749 58.6789 27.749C59.5169 27.749 60.1263 27.902 60.5834 28.0551C61.1167 28.2846 61.4976 28.5906 61.8023 28.9732C62.107 29.3557 62.2594 29.8913 62.2594 30.4269C62.2594 31.2685 61.9547 31.8805 61.3452 32.4161C61.1928 32.5691 60.9643 32.7221 60.7358 32.7986C60.5072 32.8751 60.2025 32.9517 59.8216 33.1047C60.1263 33.2577 60.3548 33.4107 60.5072 33.4872C60.6596 33.5637 60.7358 33.7168 60.8119 33.8698C60.8881 34.0228 61.0405 34.3288 61.269 34.7879C61.7261 35.7825 62.107 36.4711 62.3356 36.9301C62.5641 37.3892 62.7927 37.6952 62.945 37.9248C63.0974 38.0778 63.1736 38.2308 63.3259 38.2308C63.4783 38.3073 63.6307 38.3073 63.8592 38.3838V38.5368H61.269C61.1167 38.2308 61.0405 38.0778 61.0405 38.0013L60.5072 36.7771C60.2025 36.012 59.8216 35.3235 59.5169 34.7879C59.2121 34.1758 58.9074 33.7933 58.6027 33.6402C58.4503 33.5637 58.298 33.4872 58.1456 33.4107C57.9932 33.3342 57.7647 33.3342 57.5361 33.3342H57.079V33.2577Z" fill="#3C3A37"/>
<path d="M69.1921 27.749V27.902C68.8873 27.902 68.6588 27.9786 68.4303 28.0551C68.2779 28.1316 68.0493 28.2081 67.897 28.3611C67.6684 28.5906 67.5923 28.8967 67.5161 29.2792C67.5161 29.5852 67.4399 29.8913 67.4399 30.2738V36.0885C67.4399 36.5476 67.4399 36.8536 67.5161 37.1597C67.5923 37.3892 67.5923 37.6187 67.7446 37.7717C67.897 38.0013 68.0493 38.1543 68.2779 38.2308C68.5064 38.3073 68.8112 38.3838 69.1159 38.3838V38.5368H64.0879V38.3838C64.3926 38.3838 64.6212 38.3073 64.8497 38.2308C65.0021 38.1543 65.2306 38.0778 65.3068 37.9248C65.4592 37.7718 65.6115 37.5422 65.6115 37.3127C65.6877 37.0832 65.6877 36.6241 65.6877 36.0885V30.2738C65.6877 29.7383 65.6877 29.3557 65.6115 29.0497C65.5353 28.8202 65.4592 28.5906 65.3068 28.4376C65.1544 28.2846 65.0021 28.2081 64.7735 28.1316C64.6212 28.0551 64.3164 28.0551 64.0117 27.9786V27.749H69.1921Z" fill="#3C3A37"/>
<path d="M72.239 33.3342C72.239 34.8644 72.6199 36.1651 73.4579 37.2362C73.8388 37.6953 74.2197 38.0778 74.6768 38.2308C75.0577 38.4604 75.591 38.5369 76.1243 38.5369C76.6575 38.5369 77.1908 38.4604 77.5717 38.2308C78.0288 38.0013 78.4097 37.6953 78.7906 37.2362C79.6286 36.1651 80.0095 34.8644 80.0095 33.3342C80.0095 32.4926 79.8572 31.651 79.6286 30.8859C79.4001 30.1208 79.0953 29.5088 78.6383 28.9732C78.3335 28.5142 77.9526 28.2081 77.4955 28.0551C77.1146 27.8256 76.5814 27.7491 76.0481 27.7491C75.5148 27.7491 74.9815 27.8256 74.6006 28.0551C74.2197 28.2846 73.8388 28.5907 73.4579 28.9732C73.077 29.5088 72.6961 30.1208 72.4676 30.8859C72.3152 31.651 72.239 32.4926 72.239 33.3342ZM70.3345 33.2577C70.3345 32.3396 70.4868 31.5745 70.8677 30.8094C71.2486 30.0443 71.7819 29.3558 72.5437 28.8202C73.077 28.4376 73.6865 28.0551 74.2959 27.8256C74.9054 27.596 75.5148 27.5195 76.2004 27.5195C77.0384 27.5195 77.8003 27.6726 78.5621 28.0551C79.3239 28.4376 80.0095 28.8967 80.5428 29.5853C81.457 30.6564 81.9141 31.8041 81.9141 33.1812C81.9141 33.8698 81.7617 34.4819 81.5331 35.1705C81.3046 35.7825 80.9237 36.3946 80.4666 36.8537C79.9333 37.4658 79.2477 38.0013 78.4859 38.3839C77.7241 38.7664 76.8861 38.9194 76.0481 38.9194C75.2101 38.9194 74.4483 38.7664 73.6865 38.3839C72.9246 38.0778 72.239 37.5423 71.7057 36.9302C71.2486 36.4711 70.9439 35.8591 70.7154 35.247C70.4868 34.5584 70.3345 33.8698 70.3345 33.2577Z" fill="#3C3A37"/>
<path fill-rule="evenodd" clip-rule="evenodd" d="M43.8236 19.5622C44.3568 19.7917 44.7377 20.0213 45.1187 20.3273C44.6616 19.7917 44.2045 19.3327 43.9759 19.1032C38.1861 14.2066 35.9769 12.5234 34.8341 10.1516C33.6914 7.01468 34.3009 3.80128 36.6625 0.587891C36.5863 3.9543 37.5005 6.70864 38.7956 9.38647C39.7859 11.0697 43.2141 15.6602 44.5092 16.9609C46.6423 19.1797 47.0232 20.8629 46.947 22.6991C46.3376 21.934 44.7377 21.3219 43.9759 21.0924C38.8718 19.4092 36.9672 18.8736 35.5198 17.6495C33.92 15.8898 33.4629 13.5945 34.2247 10.8401C35.0627 13.1354 36.434 14.6656 37.9576 16.1193C39.1003 16.9609 42.6047 19.0267 43.8236 19.5622Z" fill="#3C3A37"/>
</svg>
