<svg width="240" height="115" viewBox="0 0 240 115" fill="none" xmlns="http://www.w3.org/2000/svg">
<path d="M1.71436 79.7783H16.8763V80.2183C15.7615 80.2183 14.8696 80.4382 14.4237 80.6582C13.9777 80.8781 13.5318 81.3181 13.3088 81.758C13.0858 82.1979 12.8629 82.8578 12.8629 83.2977C12.8629 83.7377 12.8629 83.9576 13.0858 84.3976C13.0858 84.6175 13.3088 85.2774 13.7547 86.3773L20.6668 104.634L27.3559 88.5769C28.2478 86.3773 28.6938 84.6175 28.6938 83.7377C28.6938 83.0778 28.6938 82.6379 28.4708 82.1979C28.2478 81.758 28.0248 81.3181 27.8019 81.0981C27.5789 80.8781 27.133 80.6582 26.687 80.6582C26.2411 80.6582 25.7951 80.4382 25.3492 80.4382V79.7783H35.6058V80.2183C34.7139 80.2183 34.045 80.4382 33.3761 80.8781C32.7072 81.3181 32.2613 81.758 31.5924 82.4179C31.1464 82.8578 30.7005 83.5177 30.4775 84.3976C30.0316 85.2774 29.5856 86.5972 28.6938 88.3569L19.329 110.793H18.4371L9.29534 87.4771C8.18049 84.3976 7.06564 82.4179 6.39673 81.758C5.95079 81.3181 5.28188 80.8781 4.61297 80.6582C3.94406 80.4382 3.05218 80.2183 2.1603 80.2183V79.7783H1.71436Z" fill="#F8F5F1"/>
<path d="M50.3216 79.7783V80.2183C49.4298 80.2183 48.7608 80.4382 48.0919 80.6582C47.646 80.8781 46.9771 81.0981 46.5311 81.538C45.8622 82.1979 45.6393 83.0778 45.4163 84.1776C45.4163 85.0575 45.1933 85.9373 45.1933 87.0371V103.754C45.1933 105.074 45.1933 105.954 45.4163 106.834C45.6393 107.494 45.6393 108.154 46.0852 108.594C46.5312 109.254 46.9771 109.693 47.646 109.913C48.3149 110.133 49.2068 110.353 50.0987 110.353V110.793H35.3826V110.353C36.2745 110.353 36.9434 110.133 37.6123 109.913C38.0583 109.693 38.7272 109.474 38.9502 109.034C39.3961 108.594 39.842 107.934 39.842 107.274C40.065 106.614 40.065 105.294 40.065 103.754V87.0371C40.065 85.4974 40.065 84.3976 39.842 83.5177C39.6191 82.8578 39.3961 82.1979 38.9502 81.758C38.5042 81.3181 38.0583 81.0981 37.3894 80.8781C36.9434 80.6582 36.0515 80.6582 35.1597 80.4382V79.7783H50.3216Z" fill="#F8F5F1"/>
<path d="M65.0376 80.4382C64.1458 80.4382 63.0309 80.4382 61.916 80.4382C59.4634 80.6582 57.6796 80.8781 56.5648 81.3181C55.4499 81.758 54.3351 82.6379 53.6662 83.7377C52.9972 84.8375 52.3283 86.1573 52.1054 88.137H51.6594L52.1054 79.7783H83.3212L83.7671 88.137H83.3212C82.8752 85.9373 82.2063 84.3976 81.3145 83.2977C80.4226 82.1979 79.0848 81.538 77.524 80.8781C76.1861 80.4382 73.7335 80.2183 70.1659 80.2183V103.534C70.1659 105.074 70.1659 106.174 70.3889 107.054C70.6119 107.714 70.8349 108.374 71.2808 108.814C71.7267 109.254 72.1727 109.474 72.8416 109.693C73.2875 109.913 74.1794 109.913 75.0713 110.133V110.573H60.3553V110.133C61.2471 110.133 61.916 109.913 62.585 109.693C63.0309 109.474 63.6998 109.254 64.1458 108.814C64.5917 108.374 65.0376 107.714 65.0376 107.054C65.2606 106.394 65.2606 105.074 65.2606 103.534V80.4382H65.0376Z" fill="#F8F5F1"/>
<path d="M97.5916 80.4382C96.6997 80.4382 95.5849 80.4382 94.47 80.4382C92.0173 80.6582 90.2336 80.8781 89.1187 81.3181C88.0039 81.758 86.889 82.6379 86.2201 83.7377C85.5512 84.8375 84.8823 86.1573 84.6593 88.137H84.2134L84.6593 79.7783H115.875L116.321 88.137H115.875C115.429 85.9373 114.76 84.3976 113.868 83.2977C112.977 82.1979 111.639 81.538 110.078 80.8781C108.74 80.4382 106.287 80.2183 102.72 80.2183V103.534C102.72 105.074 102.72 106.174 102.943 107.054C103.166 107.714 103.389 108.374 103.835 108.814C104.281 109.254 104.727 109.474 105.396 109.693C105.841 109.913 106.733 109.913 107.625 110.133V110.573H92.9092V110.133C93.8011 110.133 94.47 109.913 95.1389 109.693C95.5849 109.474 96.2538 109.254 96.6997 108.814C97.1456 108.374 97.5916 107.714 97.5916 107.054C97.8146 106.394 97.8146 105.074 97.8146 103.534V80.4382H97.5916Z" fill="#F8F5F1"/>
<path d="M124.125 95.8364C124.125 100.236 125.24 103.975 127.692 107.055C128.807 108.374 129.922 109.474 131.26 109.914C132.375 110.574 133.935 110.794 135.496 110.794C137.057 110.794 138.618 110.574 139.733 109.914C141.071 109.254 142.185 108.374 143.3 107.055C145.753 103.975 146.868 100.236 146.868 95.8364C146.868 93.4168 146.422 90.9972 145.753 88.7976C145.084 86.5979 144.192 84.8382 142.854 83.2985C141.962 81.9787 140.848 81.0988 139.51 80.6589C138.395 79.999 136.834 79.779 135.273 79.779C133.713 79.779 132.152 79.999 131.037 80.6589C129.922 81.3188 128.807 82.1986 127.692 83.2985C126.577 84.8382 125.463 86.5979 124.794 88.7976C124.571 90.9972 124.125 93.4168 124.125 95.8364ZM118.551 95.6165C118.551 92.9769 118.996 90.7773 120.111 88.5776C121.226 86.378 122.787 84.3983 125.017 82.8585C126.577 81.7587 128.361 80.6589 130.145 79.999C131.929 79.3391 133.713 79.1191 135.719 79.1191C138.172 79.1191 140.402 79.5591 142.631 80.6589C144.861 81.7587 146.868 83.0785 148.429 85.0582C151.104 88.1377 152.442 91.4371 152.442 95.3965C152.442 97.3762 151.996 99.1359 151.327 101.116C150.658 102.875 149.543 104.635 148.206 105.955C146.645 107.715 144.638 109.254 142.408 110.354C140.179 111.454 137.726 111.894 135.273 111.894C132.821 111.894 130.591 111.454 128.361 110.354C126.132 109.474 124.125 107.934 122.564 106.175C121.226 104.855 120.334 103.095 119.665 101.336C118.996 99.3559 118.551 97.3762 118.551 95.6165Z" fill="#F8F5F1"/>
<path d="M165.597 95.1758H166.489C168.496 95.1758 169.834 95.1758 170.503 94.9559C171.395 94.7359 172.064 94.296 172.732 93.6361C174.293 92.0963 175.185 90.3366 175.185 87.917C175.185 86.8172 174.962 85.4974 174.516 84.6175C174.07 83.5177 173.401 82.6379 172.509 81.978C171.841 81.538 171.172 81.0981 170.28 80.8781C169.388 80.6582 168.05 80.6582 166.489 80.6582H165.597V95.1758ZM165.597 95.6158V103.754C165.597 105.294 165.597 106.394 165.82 107.274C166.043 107.934 166.266 108.594 166.712 109.034C167.158 109.474 167.604 109.693 168.273 109.913C168.719 110.133 169.611 110.133 170.503 110.353V110.793H155.787V110.353C156.679 110.353 157.347 110.133 158.016 109.913C158.462 109.693 159.131 109.474 159.354 109.034C159.8 108.594 160.246 107.934 160.246 107.274C160.469 106.614 160.469 105.294 160.469 103.754V87.0371C160.469 85.4974 160.469 84.3976 160.246 83.5177C160.023 82.8578 159.8 82.1979 159.354 81.758C158.908 81.3181 158.462 81.0981 157.793 80.8781C157.347 80.6582 156.456 80.6582 155.564 80.4382V79.7783H166.712C168.496 79.7783 169.834 79.7783 170.28 79.7783C172.732 79.7783 174.516 80.2183 175.854 80.6582C177.415 81.3181 178.53 82.1979 179.422 83.2977C180.313 84.3976 180.759 85.9373 180.759 87.4771C180.759 89.8967 179.867 91.6564 178.084 93.1961C177.638 93.6361 176.969 94.076 176.3 94.296C175.631 94.5159 174.739 94.7359 173.624 95.1758C174.516 95.6158 175.185 96.0557 175.631 96.2757C176.077 96.4956 176.3 96.9355 176.523 97.3755C176.746 97.8154 177.192 98.6953 177.861 100.015C179.199 102.875 180.313 104.854 180.982 106.174C181.651 107.494 182.32 108.374 182.766 109.034C183.212 109.474 183.435 109.913 183.881 109.913C184.327 110.133 184.773 110.133 185.442 110.353V110.793H177.861C177.415 109.913 177.192 109.474 177.192 109.254L175.631 105.734C174.739 103.534 173.624 101.555 172.732 100.015C171.841 98.2553 170.949 97.1555 170.057 96.7156C169.611 96.4956 169.165 96.2757 168.719 96.0557C168.273 95.8357 167.604 95.8357 166.935 95.8357H165.597V95.6158Z" fill="#F8F5F1"/>
<path d="M201.05 79.7783V80.2183C200.158 80.2183 199.489 80.4382 198.82 80.6582C198.375 80.8781 197.706 81.0981 197.26 81.538C196.591 82.1979 196.368 83.0778 196.145 84.1776C196.145 85.0575 195.922 85.9373 195.922 87.0371V103.754C195.922 105.074 195.922 105.954 196.145 106.834C196.368 107.494 196.368 108.154 196.814 108.594C197.26 109.254 197.706 109.693 198.375 109.913C199.043 110.133 199.935 110.353 200.827 110.353V110.793H186.111V110.353C187.003 110.353 187.672 110.133 188.341 109.913C188.787 109.693 189.456 109.474 189.679 109.034C190.125 108.594 190.571 107.934 190.571 107.274C190.794 106.614 190.794 105.294 190.794 103.754V87.0371C190.794 85.4974 190.794 84.3976 190.571 83.5177C190.348 82.8578 190.125 82.1979 189.679 81.758C189.233 81.3181 188.787 81.0981 188.118 80.8781C187.672 80.6582 186.78 80.6582 185.888 80.4382V79.7783H201.05Z" fill="#F8F5F1"/>
<path d="M209.968 95.8364C209.968 100.236 211.083 103.975 213.536 107.055C214.651 108.374 215.766 109.474 217.103 109.914C218.218 110.574 219.779 110.794 221.34 110.794C222.901 110.794 224.461 110.574 225.576 109.914C226.914 109.254 228.029 108.374 229.144 107.055C231.596 103.975 232.711 100.236 232.711 95.8364C232.711 93.4168 232.265 90.9972 231.596 88.7976C230.927 86.5979 230.036 84.8382 228.698 83.2985C227.806 81.9787 226.691 81.0988 225.353 80.6589C224.238 79.999 222.678 79.779 221.117 79.779C219.556 79.779 217.995 79.999 216.88 80.6589C215.766 81.3188 214.651 82.1986 213.536 83.2985C212.421 84.8382 211.306 86.5979 210.637 88.7976C210.191 90.9972 209.968 93.4168 209.968 95.8364ZM204.394 95.6165C204.394 92.9769 204.84 90.7773 205.955 88.5776C207.07 86.378 208.63 84.3983 210.86 82.8585C212.421 81.7587 214.205 80.6589 215.988 79.999C217.772 79.3391 219.556 79.1191 221.563 79.1191C224.015 79.1191 226.245 79.5591 228.475 80.6589C230.705 81.7587 232.711 83.0785 234.272 85.0582C236.948 88.1377 238.286 91.4371 238.286 95.3965C238.286 97.3762 237.84 99.1359 237.171 101.116C236.502 102.875 235.387 104.635 234.049 105.955C232.488 107.715 230.482 109.254 228.252 110.354C226.022 111.454 223.569 111.894 221.117 111.894C218.664 111.894 216.434 111.454 214.205 110.354C211.975 109.474 209.968 107.934 208.407 106.175C207.07 104.855 206.178 103.095 205.509 101.336C204.84 99.3559 204.394 97.3762 204.394 95.6165Z" fill="#F8F5F1"/>
<path fill-rule="evenodd" clip-rule="evenodd" d="M126.801 56.2426C128.362 56.9025 129.477 57.5624 130.591 58.4422C129.254 56.9025 127.916 55.5827 127.247 54.9228C110.301 40.8451 103.835 36.0059 100.49 29.187C97.1458 20.1684 98.9296 10.9299 105.842 1.69141C105.619 11.3698 108.294 19.2886 112.085 26.9873C114.983 31.8265 125.017 45.0244 128.808 48.7638C135.051 55.1428 136.166 59.982 135.943 65.2611C134.159 63.0615 129.477 61.3018 127.247 60.6419C112.308 55.8027 106.734 54.2629 102.497 50.7435C97.8147 45.6843 96.4769 39.0854 98.7066 31.1666C101.159 37.7656 105.173 42.1649 109.632 46.3442C112.977 48.7638 123.233 54.7028 126.801 56.2426Z" fill="#F8F5F1"/>
</svg>
