<svg width="140" height="70" viewBox="0 0 140 70" fill="none" xmlns="http://www.w3.org/2000/svg">
<path d="M15.2 49.0285C15.325 49.2535 15.4 49.5285 15.45 49.7785C17.525 58.0285 11.825 65.7785 4.2 68.5785L4 68.0785C11.425 65.4535 16.9 57.9535 14.875 49.9285L14.775 49.5785C12.625 52.1035 11.025 53.8035 10.275 54.0035C9.8 54.1285 9.325 53.8785 9.2 53.4785C8.725 51.5535 10.025 48.3785 12.1 44.6535C10.25 42.2785 8.125 39.6535 6.625 33.8035C4.175 24.1035 11.025 9.17848 20.975 6.67848C25.15 5.62848 28.075 7.85348 29.2 12.2785C31.375 20.8785 19.425 35.7785 13.225 45.2535C13.9 46.2535 14.525 47.2035 14.95 48.4035C21.85 39.8035 34.575 22.3535 43.925 14.8035L44.225 15.2285C34.95 22.6535 22.35 40.3035 15.2 49.0285ZM12.425 44.1035C18.45 33.6785 30.35 19.1035 28.65 12.4285C27.575 8.17848 24.975 6.25348 21.025 7.25348C12.125 9.50348 4.925 24.5535 7.2 33.5035C8.65 39.2035 10.65 41.7785 12.425 44.1035ZM14.55 48.9035C14.125 47.7035 13.55 46.6785 12.875 45.7285C10.75 49.1035 9.375 51.7535 9.725 53.0785C9.775 53.3035 10.05 53.4285 10.3 53.3785C10.875 53.2285 12.425 51.5285 14.55 48.9035Z" fill="#3C3A37"/>
<path d="M35.3502 44.6284C35.4002 44.8534 35.5502 44.8784 36.0002 44.7784C37.4502 44.4034 42.8002 40.5784 45.3502 38.4534C45.5252 38.4034 45.6502 38.4284 45.7002 38.6034C45.7252 38.7284 45.7002 38.8534 45.5002 39.0284C42.8752 41.1034 37.8502 44.9284 35.8752 45.4284C35.3002 45.5784 34.7752 45.5284 34.6502 45.0034C34.2752 43.5034 35.6502 40.8534 38.7502 36.9784L38.6502 36.8784C36.3502 38.5034 34.5752 39.8784 30.9752 42.7034C30.8002 42.7534 30.6752 42.7284 30.6252 42.5534C30.6002 42.4284 30.6252 42.3034 30.8252 42.1284C34.4002 39.3784 36.0502 38.0784 41.4252 34.3784L41.7252 34.6034C36.6002 40.9784 35.1502 43.7534 35.3502 44.6284ZM47.9752 20.9034C48.4502 20.7784 48.9502 21.0784 49.0752 21.5534C49.2252 22.1284 48.7502 22.6784 48.2252 22.8284C47.7502 22.9534 47.2502 22.6534 47.1252 22.1784C46.9752 21.5784 47.4502 21.0284 47.9752 20.9034Z" fill="#3C3A37"/>
<path d="M60.2501 34.9284C60.2751 35.0534 60.2501 35.1784 60.0501 35.3534C57.4251 37.4284 52.6751 41.1784 50.7001 41.6784C50.1251 41.8284 49.6001 41.7784 49.4751 41.2534C49.3251 40.6034 52.8251 34.9034 55.4751 30.2034L55.3751 30.1034C53.0001 32.6784 49.3251 36.0284 45.5001 39.0284C45.3251 39.0784 45.2001 39.0534 45.1501 38.8784C45.1251 38.7534 45.1501 38.6284 45.3501 38.4534C49.0751 35.5284 52.7001 32.3284 56.4501 28.3534C58.4001 25.2534 59.7251 23.0034 60.9251 20.9034L56.3251 22.0534C56.1501 22.1034 56.0001 22.0034 55.9501 21.8284C55.9001 21.6534 56.0001 21.5034 56.1751 21.4534L61.3501 20.1534C63.2001 16.9534 64.5251 14.5784 66.1501 11.5284L67.2501 11.2534L67.5001 11.5034C66.2501 13.6784 64.4751 16.6534 62.5001 19.8784L66.6251 18.8284C66.8001 18.7784 66.9501 18.8784 67.0001 19.0534C67.0501 19.2284 66.9501 19.3784 66.7751 19.4284L62.0751 20.6284C56.5751 29.6784 49.9751 40.2534 50.1251 40.9034C50.1751 41.1284 50.3251 41.1534 50.7751 41.0534C52.2251 40.6784 57.2751 36.9284 59.8251 34.8034C60.0751 34.7284 60.2001 34.7534 60.2501 34.9284Z" fill="#3C3A37"/>
<path d="M74.775 31.2534C74.8 31.3784 74.775 31.5034 74.575 31.6784C71.95 33.7534 67.2 37.5034 65.225 38.0034C64.65 38.1534 64.125 38.1034 64 37.5784C63.85 36.9284 67.35 31.2284 70 26.5284L69.9 26.4284C67.525 29.0034 63.85 32.3534 60.025 35.3534C59.85 35.4034 59.725 35.3784 59.675 35.2034C59.65 35.0784 59.675 34.9534 59.875 34.7784C63.6 31.8534 67.225 28.6534 70.975 24.6784C72.925 21.5784 74.25 19.3284 75.45 17.2284L70.85 18.3784C70.675 18.4284 70.525 18.3284 70.475 18.1534C70.425 17.9784 70.525 17.8284 70.7 17.7784L75.875 16.4784C77.725 13.2784 79.05 10.9034 80.675 7.85337L81.775 7.57837L82.025 7.82837C80.775 10.0034 79 12.9784 77.025 16.2034L81.15 15.1534C81.325 15.1034 81.475 15.2034 81.525 15.3784C81.575 15.5534 81.475 15.7034 81.3 15.7534L76.6 16.9534C71.1 26.0034 64.5 36.5784 64.65 37.2284C64.7 37.4534 64.85 37.4784 65.3 37.3784C66.75 37.0034 71.8 33.2534 74.35 31.1284C74.6 31.0534 74.725 31.0784 74.775 31.2534Z" fill="#3C3A37"/>
<path d="M81.8248 25.4535C83.0498 24.2035 84.3748 23.3285 85.3748 23.0785C86.5248 22.7785 87.1748 23.3035 87.4498 24.4035C87.7498 25.5785 87.3248 27.1035 86.4748 28.6035C86.8498 28.8785 87.1498 28.8535 87.5748 28.7535C88.2748 28.5785 89.1748 28.0285 90.4248 27.0535C90.5998 27.0035 90.7248 27.0285 90.7748 27.2035C90.7998 27.3285 90.7748 27.4535 90.5748 27.6285C89.3998 28.6035 88.4748 29.0785 87.5998 29.3035C87.0748 29.4285 86.5748 29.4285 86.1998 29.1535C84.7748 31.5535 82.3498 33.7785 80.3248 34.2785C79.0498 34.6035 78.2748 34.2285 78.0498 33.3035C77.6498 31.6785 78.6498 29.3285 80.0748 27.4035L79.9748 27.3035C78.4748 28.4285 77.2998 29.4035 74.5748 31.6285C74.3998 31.6785 74.2748 31.6535 74.2248 31.4785C74.1998 31.3535 74.2248 31.2285 74.4248 31.0535C77.0748 28.8785 78.6748 27.6535 81.8248 25.4535ZM80.0998 33.7285C83.4248 32.8785 87.6748 27.4785 86.8998 24.4535C86.6998 23.7035 86.2748 23.4285 85.5748 23.6035C83.1998 24.2035 78.0748 31.1285 78.6248 33.2785C78.7248 33.7035 79.0998 33.9785 80.0998 33.7285Z" fill="#3C3A37"/>
<path d="M90.1999 27.4783C90.1749 27.3533 90.1999 27.2283 90.3999 27.0533C92.9999 25.1033 96.4999 22.1033 99.6499 19.4033C100.2 17.4783 101.425 16.3533 102.175 16.1783C102.35 16.1283 102.575 16.2533 102.625 16.5033C102.75 17.0283 102.125 18.1783 100.2 19.6033C100.8 20.0033 101.625 20.3533 102.2 20.4533C102.525 20.2533 102.8 19.9283 102.975 19.8783C103.15 19.8283 103.275 19.8533 103.325 20.0283C103.4 20.3283 102.925 20.4283 102.275 21.0283C98.0499 24.8283 96.1749 28.2033 96.3999 29.1283C96.4499 29.3533 96.6749 29.4283 96.9999 29.3533C98.4499 28.9783 103.8 25.1533 106.35 23.0283C106.525 22.9783 106.65 23.0033 106.7 23.1783C106.725 23.3033 106.7 23.4283 106.5 23.6033C103.875 25.6783 98.8499 29.5033 96.8749 30.0033C96.2249 30.1533 95.8499 29.8783 95.7499 29.4783C95.3499 27.8533 96.1999 25.1533 101.8 20.8283C101.075 20.6533 100.3 20.2783 99.7249 19.9783C96.7999 22.3783 93.3749 25.4283 90.5249 27.6283C90.3749 27.6783 90.2499 27.6533 90.1999 27.4783Z" fill="#3C3A37"/>
<path d="M110.925 25.5034C110.975 25.7284 111.125 25.7534 111.575 25.6534C113.025 25.2784 118.375 21.4534 120.925 19.3284C121.1 19.2784 121.225 19.3034 121.275 19.4784C121.3 19.6034 121.275 19.7284 121.075 19.9034C118.45 21.9784 113.425 25.8034 111.45 26.3034C110.875 26.4534 110.35 26.4034 110.225 25.8784C109.85 24.3784 111.225 21.7284 114.325 17.8534L114.225 17.7534C111.925 19.3784 110.15 20.7534 106.55 23.5784C106.375 23.6284 106.25 23.6034 106.2 23.4284C106.175 23.3034 106.2 23.1784 106.4 23.0034C109.975 20.2534 111.625 18.9534 117 15.2534L117.3 15.4784C112.15 21.8534 110.7 24.6284 110.925 25.5034ZM123.525 1.77843C124 1.65343 124.5 1.95343 124.625 2.42843C124.775 3.00343 124.3 3.55343 123.775 3.70343C123.3 3.82843 122.8 3.52843 122.675 3.05343C122.525 2.47843 123 1.92843 123.525 1.77843Z" fill="#3C3A37"/>
<path d="M128.325 13.6784C129.55 12.4284 130.875 11.5534 131.875 11.3034C133.025 11.0034 133.675 11.5284 133.95 12.6284C134.25 13.7784 133.825 15.3284 132.975 16.8284C133.35 17.1034 133.65 17.0784 134.075 16.9784C134.775 16.8034 135.675 16.2534 136.925 15.2784C137.1 15.2284 137.225 15.2534 137.275 15.4284C137.3 15.5534 137.275 15.6784 137.075 15.8534C135.9 16.8284 134.975 17.3034 134.1 17.5284C133.575 17.6534 133.075 17.6534 132.7 17.3784C131.275 19.7784 128.85 22.0034 126.825 22.5034C125.55 22.8284 124.775 22.4534 124.55 21.5284C124.15 19.9034 125.15 17.5534 126.575 15.6284L126.475 15.5284C124.975 16.6534 123.8 17.6284 121.075 19.8534C120.9 19.9034 120.775 19.8784 120.725 19.7034C120.7 19.5784 120.725 19.4534 120.925 19.2784C123.575 17.1034 125.175 15.9034 128.325 13.6784ZM126.6 21.9784C129.925 21.1284 134.175 15.7284 133.4 12.7034C133.2 11.9534 132.775 11.6784 132.075 11.8534C129.7 12.4534 124.575 19.3784 125.125 21.5284C125.225 21.9534 125.6 22.2284 126.6 21.9784Z" fill="#3C3A37"/>
</svg>
