<svg width="40" height="40" viewBox="0 0 40 40" fill="none" xmlns="http://www.w3.org/2000/svg">
<rect width="40" height="40" fill="#3C3A37"/>
<path fill-rule="evenodd" clip-rule="evenodd" d="M25.3776 31.6035C26.1475 31.9398 26.6975 32.2762 27.2474 32.7246C26.5875 31.9398 25.9276 31.2672 25.5976 30.9308C17.2384 23.7558 14.0487 21.2893 12.3989 17.8139C10.7491 13.2174 11.629 8.5087 15.0386 3.80005C14.9286 8.73292 16.2485 12.7689 18.1183 16.6928C19.5482 19.1592 24.4977 25.8859 26.3675 27.7917C29.4472 31.043 29.9972 33.5094 29.8872 36.2001C29.0073 35.0789 26.6975 34.1821 25.5976 33.8457C18.2283 31.3793 15.4786 30.5945 13.3888 28.8007C11.079 26.2222 10.4191 22.8589 11.519 18.8229C12.7289 22.1862 14.7087 24.4284 16.9085 26.5585C18.5583 27.7917 23.6178 30.8187 25.3776 31.6035Z" fill="#F8F5F1"/>
</svg>
