<svg width="36" height="20" viewBox="0 0 36 20" fill="none" xmlns="http://www.w3.org/2000/svg">
<path d="M0 11V9H1.25365C6.1755 9 10.189 5.25274 10.3846 0.55989V0H12.455L12.4526 0.639311C12.3129 4.05824 10.5538 7.0754 7.89324 9H27.8144C25.0554 7.0754 23.2311 4.05824 23.0862 0.639311L23.0837 0H25.2308V0.55989C25.4337 5.25274 29.5958 9 34.6999 9H36V11H34.6999C29.5958 11 25.4337 14.7473 25.2308 19.4401L25.2308 20H23.0862V19.3607C23.2311 15.9418 25.0554 12.9246 27.8144 11H7.89324C10.5538 12.9246 12.3129 15.9418 12.4526 19.3607V20H10.3846L10.3846 19.4401C10.189 14.7473 6.1755 11 1.25365 11H0Z" fill="#3C3A37"/>
</svg>
