<svg width="27" height="14" viewBox="0 0 27 14" fill="none" xmlns="http://www.w3.org/2000/svg">
<path d="M0.899902 7.70001L0.899902 6.3H1.77745C5.22275 6.3 8.03219 3.67692 8.16913 0.391923V0L9.61842 0L9.61671 0.447517C9.51894 2.84076 8.28754 4.95278 6.42517 6.3L20.37 6.3C18.4386 4.95278 17.1616 2.84076 17.0603 0.447517L17.0585 0L18.5614 0V0.391923C18.7035 3.67692 21.617 6.3 25.1899 6.3L26.0999 6.3V7.70001L25.1899 7.70001C21.617 7.70001 18.7035 10.3231 18.5614 13.6081L18.5614 14L17.0603 14V13.5525C17.1616 11.1592 18.4387 9.04722 20.37 7.70001L6.42517 7.70001C8.28754 9.04722 9.51894 11.1592 9.61671 13.5525V14H8.16913L8.16914 13.6081C8.03219 10.3231 5.22275 7.70001 1.77745 7.70001H0.899902Z" fill="#F8F5F1"/>
</svg>
