<svg width="156" height="156" viewBox="0 0 156 156" fill="none" xmlns="http://www.w3.org/2000/svg">
<path d="M79.8195 12.986L81.4787 10.2632L81.473 10.7437L77.946 4.39403L79.5989 4.4962L82.3105 9.44892L82.0111 9.43041L84.8089 4.81823L86.4019 4.91669L81.4245 13.0852L79.8195 12.986Z" fill="#FFFDFA"/>
<path d="M89.5434 14.1424C88.8273 14.0115 88.2057 13.8084 87.6786 13.5331C87.1529 13.2499 86.7261 12.9157 86.398 12.5304L87.087 11.4975C87.3893 11.8456 87.7511 12.1354 88.1724 12.3669C88.595 12.5905 89.0936 12.7549 89.6681 12.8599C90.3606 12.9865 90.8876 12.9731 91.2491 12.8196C91.612 12.6582 91.8331 12.3611 91.9122 11.9283C91.9856 11.527 91.9058 11.2074 91.6727 10.9696C91.4411 10.724 91.046 10.5501 90.4872 10.4479L88.3978 10.0659L88.6158 8.87368L90.5163 9.22113C91.0514 9.31897 91.4701 9.29791 91.7722 9.15796C92.0836 9.01157 92.2745 8.74558 92.345 8.35997C92.4126 7.9901 92.3203 7.67231 92.0679 7.4066C91.8171 7.13301 91.3886 6.94083 90.7827 6.83005C90.3026 6.74229 89.8293 6.72895 89.3627 6.79003C88.8961 6.85111 88.4645 6.98772 88.0679 7.19985L87.7889 5.98996C88.2164 5.74279 88.7246 5.58766 89.3135 5.52455C89.9118 5.45501 90.5257 5.47778 91.1552 5.59288C92.1862 5.78136 92.9232 6.13162 93.3663 6.64366C93.8173 7.15714 93.981 7.75227 93.8572 8.42906C93.7652 8.93271 93.5372 9.33426 93.1734 9.63372C92.8111 9.92531 92.3594 10.0826 91.8185 10.1057L91.8508 9.92867C92.4252 10.1231 92.8453 10.4277 93.1111 10.8422C93.3847 11.2582 93.469 11.7534 93.364 12.3279C93.2748 12.8158 93.0705 13.2217 92.751 13.5455C92.4409 13.8629 92.0153 14.0779 91.4742 14.1904C90.9425 14.2965 90.2989 14.2805 89.5434 14.1424Z" fill="#FFFDFA"/>
<path d="M94.223 14.9075L96.8345 6.86063L98.3069 7.33848L97.2179 10.6942L101.338 12.0314L102.427 8.67573L103.9 9.15358L101.288 17.2004L99.8158 16.7226L100.942 13.2527L96.8215 11.9155L95.6954 15.3853L94.223 14.9075Z" fill="#FFFDFA"/>
<path d="M102.143 17.4271L109.306 11.5172L110.469 12.0878L110.224 21.3902L108.813 20.698L108.932 18.1103L109.308 18.7622L104.75 16.527L105.517 16.4353L103.544 18.1141L102.143 17.4271ZM109.147 13.284L105.863 16.1375L105.747 15.6661L109.367 17.4415L108.977 17.6646L109.191 13.3052L109.147 13.284Z" fill="#FFFDFA"/>
<path d="M112.999 23.2071L116.968 17.2143L114.637 15.6704L115.339 14.6099L121.292 18.5526L120.589 19.6131L118.258 18.0691L114.289 24.0619L112.999 23.2071Z" fill="#FFFDFA"/>
<path d="M117.477 26.241L122.962 19.8001L124.132 20.796L121.836 23.4911L123.664 25.0472C124.37 25.6489 124.786 26.2767 124.913 26.9305C125.044 27.5783 124.848 28.2097 124.324 28.8249C123.805 29.434 123.21 29.7313 122.54 29.717C121.869 29.7026 121.18 29.3946 120.474 28.793L117.477 26.241ZM119.417 26.3324L121.107 27.7718C121.539 28.1401 121.923 28.3306 122.259 28.3434C122.6 28.3501 122.911 28.189 123.191 27.8601C123.466 27.5373 123.57 27.2112 123.504 26.8817C123.438 26.5521 123.189 26.2032 122.756 25.835L121.066 24.3956L119.417 26.3324Z" fill="#FFFDFA"/>
<path d="M126.376 34.4461L132.954 29.1268L136.75 33.8204L135.816 34.5749L132.949 31.0291L131.13 32.5003L132.676 34.4133C133.26 35.1349 133.553 35.8286 133.557 36.4946C133.567 37.1554 133.257 37.7399 132.629 38.2479C132.007 38.7509 131.368 38.9336 130.711 38.7958C130.054 38.658 129.434 38.2283 128.851 37.5067L126.376 34.4461ZM128.228 34.8469L129.661 36.6198C130.018 37.0615 130.361 37.3196 130.689 37.3941C131.023 37.4635 131.357 37.3625 131.693 37.0909C132.023 36.8243 132.186 36.5229 132.182 36.1869C132.177 35.8508 131.997 35.4619 131.64 35.0202L130.206 33.2473L128.228 34.8469Z" fill="#FFFDFA"/>
<path d="M135.055 38.5362C135.814 38.0762 136.554 37.8151 137.274 37.7531C137.998 37.6979 138.668 37.8392 139.284 38.1768C139.907 38.5104 140.436 39.0364 140.872 39.7548C141.303 40.4665 141.522 41.1756 141.529 41.8821C141.543 42.5845 141.357 43.2438 140.973 43.8601C140.593 44.4832 140.027 45.0228 139.274 45.4787C138.514 45.9387 137.767 46.195 137.032 46.2475C136.308 46.3027 135.634 46.1635 135.011 45.83C134.388 45.4965 133.861 44.9739 133.43 44.2623C132.995 43.5438 132.774 42.8313 132.767 42.1247C132.764 41.425 132.955 40.767 133.339 40.1507C133.73 39.5303 134.302 38.9922 135.055 38.5362ZM135.894 39.9219C135.08 40.4151 134.549 40.975 134.302 41.6017C134.055 42.2284 134.141 42.8873 134.559 43.5784C134.965 44.2489 135.508 44.6267 136.186 44.7117C136.864 44.7966 137.61 44.5925 138.424 44.0993C139.245 43.6019 139.772 43.0351 140.004 42.3989C140.24 41.7695 140.153 41.1161 139.743 40.4387C139.324 39.7476 138.783 39.3644 138.12 39.2889C137.457 39.2135 136.715 39.4245 135.894 39.9219Z" fill="#FFFDFA"/>
<path d="M136.123 49.0366L136.878 47.8963C137.178 48.1341 137.493 48.3225 137.821 48.4617C138.149 48.6009 138.515 48.6761 138.92 48.6875C139.331 48.6958 139.803 48.6308 140.335 48.4925C140.878 48.3586 141.507 48.1404 142.221 47.8381L144.598 46.8331L146.991 52.4917L139.199 55.7873L138.601 54.3727L145.232 51.5679L143.993 48.6391L142.424 49.3029C141.68 49.6177 141.001 49.8398 140.387 49.9692C139.773 50.0987 139.207 50.1469 138.689 50.114C138.179 50.078 137.711 49.9675 137.285 49.7827C136.87 49.6022 136.482 49.3535 136.123 49.0366Z" fill="#FFFDFA"/>
<path d="M139.835 57.6045L148.001 55.3917L148.402 56.8742L144.986 57.8001L145.613 60.1166C145.856 61.0123 145.845 61.7655 145.579 62.3762C145.321 62.9848 144.803 63.3948 144.023 63.6061C143.25 63.8154 142.592 63.7245 142.047 63.3335C141.501 62.9425 141.107 62.2991 140.865 61.4035L139.835 57.6045ZM141.383 58.7763L141.964 60.919C142.113 61.4672 142.322 61.8415 142.592 62.0419C142.869 62.2402 143.216 62.2829 143.633 62.1699C144.043 62.059 144.313 61.849 144.445 61.5397C144.577 61.2305 144.568 60.8018 144.42 60.2536L143.839 58.1109L141.383 58.7763Z" fill="#FFFDFA"/>
<path d="M142.076 65.5063L150.494 64.6596L150.645 66.164L143.493 66.8834L143.832 70.2504L150.984 69.531L151.135 71.0354L143.983 71.7548L144.322 75.1218L151.474 74.4024L151.625 75.9068L143.207 76.7535L142.076 65.5063Z" fill="#FFFDFA"/>
<path d="M143.055 78.9535L151.501 79.4428L151.171 85.1333L149.961 85.0632L150.205 80.8582L147.869 80.7229L147.641 84.6523L146.419 84.5815L146.647 80.6521L144.191 80.5098L143.948 84.7147L142.726 84.6439L143.055 78.9535Z" fill="#FFFDFA"/>
<path opacity="0.4" d="M74 9.11401C37.7539 11.1858 9 41.235 9 78C9 116.108 39.8924 147 78 147C111.664 147 139.697 122.893 145.777 91L146.795 91C140.701 123.448 112.218 148 78 148C39.3401 148 8 116.66 8 78C8 40.6826 37.2012 10.1854 74 8.11236L74 9.11401Z" fill="#F8F5F1"/>
</svg>
