<svg width="21" height="36" viewBox="0 0 21 36" fill="none" xmlns="http://www.w3.org/2000/svg">
<path fill-rule="evenodd" clip-rule="evenodd" d="M15.9751 30.8927C16.8306 31.2664 17.4417 31.6401 18.0527 32.1384C17.3195 31.2664 16.5862 30.519 16.2196 30.1453C6.93158 22.173 3.38748 19.4325 1.55433 15.5709C-0.278827 10.4637 0.698857 5.23183 4.48737 0C4.36516 5.48097 5.83169 9.9654 7.90926 14.3253C9.49799 17.0657 14.9975 24.5398 17.075 26.6574C20.4969 30.2699 21.108 33.0104 20.9858 36C20.0081 34.7543 17.4417 33.7578 16.2196 33.3841C8.03148 30.6436 4.97621 29.7716 2.65422 27.7785C0.0878055 24.9135 -0.645457 21.1765 0.576646 16.692C1.92096 20.4291 4.12074 22.9204 6.56495 25.2872C8.3981 26.6574 14.0198 30.0208 15.9751 30.8927Z" fill="#3C3A37"/>
</svg>
