<svg width="24" height="24" viewBox="0 0 24 24" fill="none" xmlns="http://www.w3.org/2000/svg">
<path fill-rule="evenodd" clip-rule="evenodd" d="M15.5851 19.7358C16.0984 19.9601 16.465 20.1843 16.8316 20.4832C16.3917 19.9601 15.9517 19.5116 15.7317 19.2874C10.1589 14.504 8.03249 12.8597 6.9326 10.5428C5.8327 7.4784 6.41931 4.3393 8.69242 1.2002C8.6191 4.48878 9.49901 7.17943 10.7456 9.79535C11.6988 11.4396 14.9985 15.9241 16.245 17.1947C18.2981 19.3621 18.6648 21.0064 18.5915 22.8002C18.0048 22.0528 16.465 21.4549 15.7317 21.2306C10.8189 19.5864 8.98573 19.0632 7.59253 17.8673C6.05268 16.1483 5.61273 13.9061 6.34599 11.2154C7.15258 13.4576 8.47245 14.9524 9.93897 16.3725C11.0389 17.1947 14.4119 19.2126 15.5851 19.7358Z" fill="#F8F5F1"/>
</svg>
