<svg width="71" height="20" viewBox="0 0 71 20" fill="none" xmlns="http://www.w3.org/2000/svg">
<g clip-path="url(#clip0_954_3310)">
<path d="M1.02051 5.56596H2.33279L5.1502 13.0309L8.49544 5.05859L11.6647 13.0309L14.786 5.56596H16.0987L11.6167 16.0464L8.4793 8.0741L5.11793 16.0464L1.02051 5.56596ZM23.1414 5.56596V6.61114H18.7878V9.56717H23.0135V10.6123H18.7878V14.4788H23.1414V15.524H17.603V5.56596H23.1414ZM25.3184 5.56596H27.2392C28.3064 5.56596 29.1224 5.77521 29.6882 6.19299C30.3282 6.65091 30.6486 7.33778 30.6486 8.25326C30.6486 9.10925 30.2964 9.76137 29.5922 10.2093C30.2748 10.3683 30.7846 10.6894 31.1208 11.172C31.4569 11.6547 31.6248 12.1699 31.6248 12.7174C31.6248 13.1653 31.521 13.5781 31.3128 13.9564C31.1046 14.3344 30.8461 14.6383 30.5365 14.8672C29.9387 15.3051 29.0851 15.524 27.9753 15.524H25.3184V5.56596ZM26.5028 6.61114V9.94052H27.399C27.5592 9.94052 27.714 9.933 27.8635 9.91795C28.0129 9.9029 28.1916 9.86313 28.3998 9.79863C28.6076 9.73378 28.7889 9.64671 28.9437 9.53743C29.0986 9.42779 29.2292 9.26368 29.336 9.04476C29.4428 8.82547 29.4962 8.57179 29.4962 8.28335C29.4962 7.97485 29.432 7.70827 29.3041 7.48433C29.1758 7.26039 29.0317 7.09378 28.8719 6.98449C28.7117 6.87485 28.5196 6.79029 28.2957 6.73045C28.0713 6.67097 27.9008 6.63586 27.7832 6.62619C27.666 6.61615 27.5485 6.61114 27.4313 6.61114H26.5028ZM26.5028 10.9259V14.4788H27.8635C28.7278 14.4788 29.3521 14.3395 29.7363 14.0611C30.2057 13.7425 30.4404 13.2846 30.4404 12.6873C30.4404 12.0205 30.1362 11.5328 29.528 11.2243C29.1439 11.0251 28.5411 10.9259 27.7194 10.9259H26.5028ZM39.5161 6.95439L38.5719 7.53664C38.4009 7.22814 38.1931 6.97948 37.9476 6.79029C37.6272 6.56133 37.2273 6.44703 36.7471 6.44703C36.2135 6.44703 35.7813 6.58856 35.4506 6.87234C35.1198 7.15612 34.9543 7.52697 34.9543 7.98453C34.9543 8.32313 35.0876 8.61156 35.3545 8.85055C35.5678 9.04977 35.9415 9.25867 36.4748 9.47759L37.4993 9.89573C38.2569 10.2042 38.8066 10.5178 39.1481 10.8363C39.6602 11.3139 39.9164 11.9159 39.9164 12.6425C39.9164 13.5483 39.596 14.285 38.956 14.8522C38.3156 15.4194 37.5101 15.7032 36.5389 15.7032C35.5785 15.7032 34.8048 15.4344 34.2178 14.897C33.7376 14.4591 33.4069 13.8719 33.2256 13.1352L34.378 12.8367C34.4525 13.3344 34.6661 13.7572 35.0184 14.1058C35.4129 14.4738 35.9254 14.658 36.555 14.658C37.2381 14.658 37.7659 14.4667 38.1397 14.0833C38.5131 13.7002 38.6998 13.2348 38.6998 12.6873C38.6998 12.2097 38.5238 11.8216 38.1716 11.5228C37.9687 11.3437 37.5419 11.1147 36.8912 10.8363L35.9308 10.4181C35.2796 10.1394 34.8048 9.86564 34.5059 9.59691C34.0154 9.15906 33.7699 8.61658 33.7699 7.96984C33.7699 7.20342 34.05 6.58391 34.6101 6.11094C35.1702 5.63833 35.8881 5.40185 36.7629 5.40185C37.4248 5.40185 37.9956 5.55127 38.4758 5.84974C38.9134 6.11847 39.2599 6.4868 39.5161 6.95439ZM43.2778 5.56596V9.61196H48.752V5.56596H49.9364V15.524H48.752V10.6571H43.2778V15.524H42.093V5.56596H43.2778ZM61.6132 14.2252C60.5407 15.2105 59.2257 15.7032 57.6675 15.7032C56.1098 15.7032 54.7944 15.2105 53.7219 14.2252C52.6497 13.2398 52.1134 12.0155 52.1134 10.5525C52.1134 9.07951 52.6524 7.85267 53.7299 6.87234C54.8079 5.89202 56.1202 5.40185 57.6675 5.40185C59.2149 5.40185 60.5276 5.89202 61.6052 6.87234C62.6831 7.85267 63.2217 9.07951 63.2217 10.5525C63.2217 12.0155 62.6858 13.2398 61.6132 14.2252ZM60.7408 7.64127C59.898 6.84511 58.8734 6.44703 57.6675 6.44703C56.4617 6.44703 55.4375 6.84511 54.5943 7.64127C53.7514 8.43743 53.3296 9.40808 53.3296 10.5525C53.3296 11.6969 53.7514 12.6676 54.5943 13.4638C55.4375 14.2599 56.4617 14.658 57.6675 14.658C58.8734 14.658 59.898 14.2599 60.7408 13.4638C61.584 12.6676 62.0055 11.6969 62.0055 10.5525C62.0055 9.40808 61.584 8.43743 60.7408 7.64127ZM65.3987 5.56596H67.3356C68.5519 5.56596 69.4485 5.79993 70.0247 6.26788C70.6755 6.78527 71.0009 7.49687 71.0009 8.40267C71.0009 9.17912 70.7208 9.83841 70.1607 10.3809C69.6006 10.9234 68.7547 11.1946 67.6237 11.1946H66.5831V15.524H65.3987V5.56596ZM66.5831 6.61114V10.1494H67.5596C68.2637 10.1494 68.8162 9.99033 69.2165 9.67179C69.6164 9.35326 69.8165 8.91039 69.8165 8.34283C69.8165 7.18837 69.0324 6.61114 67.4636 6.61114H66.5831Z" fill="#292929" fill-opacity="0.219608"/>
<path d="M0.0957031 5.57767H1.40837L4.22539 13.0426L7.57063 5.07031L10.7399 13.0426L13.8612 5.57767H15.1739L10.6919 16.0581L7.55488 8.08582L4.19351 16.0581L0.0957031 5.57767ZM22.2166 5.57767V6.62286H17.863V9.57889H22.0887V10.6241H17.863V14.4906H22.2166V15.5357H16.6786V5.57767H22.2166ZM24.3936 5.57767H26.3144C27.3816 5.57767 28.1979 5.78693 28.7634 6.20471C29.4038 6.66263 29.7238 7.3495 29.7238 8.26498C29.7238 9.12097 29.3715 9.77309 28.6674 10.221C29.3504 10.3801 29.8598 10.7011 30.1959 11.1837C30.5321 11.6664 30.7003 12.1816 30.7003 12.7291C30.7003 13.177 30.5962 13.5898 30.388 13.9681C30.1798 14.3465 29.9213 14.65 29.6116 14.879C29.0143 15.3168 28.1607 15.5357 27.0509 15.5357H24.3936V5.57767ZM25.578 6.62286V9.95224H26.4746C26.6344 9.95224 26.7892 9.94472 26.9387 9.92967C27.0881 9.91498 27.2668 9.87485 27.475 9.81035C27.6832 9.7455 27.8645 9.65843 28.0189 9.54915C28.1737 9.4395 28.3047 9.2754 28.4112 9.05647C28.518 8.83755 28.5714 8.58351 28.5714 8.29507C28.5714 7.98657 28.5072 7.72035 28.3793 7.49641C28.2513 7.27211 28.1073 7.10549 27.9471 6.99621C27.7869 6.88657 27.5948 6.80201 27.3709 6.74217C27.1469 6.68269 26.9759 6.64758 26.8588 6.6379C26.7412 6.62787 26.6241 6.62286 26.5065 6.62286H25.578ZM25.578 10.9376V14.4906H26.9387C27.803 14.4906 28.4273 14.3515 28.8114 14.0728C29.2809 13.7542 29.5156 13.2963 29.5156 12.699C29.5156 12.0322 29.2117 11.5446 28.6032 11.2361C28.2191 11.0368 27.6163 10.9376 26.7946 10.9376H25.578ZM38.5913 6.96611L37.6471 7.54836C37.4765 7.23986 37.2683 6.99119 37.0228 6.80201C36.7028 6.57305 36.3025 6.45875 35.8223 6.45875C35.2887 6.45875 34.8565 6.60028 34.5258 6.88406C34.195 7.16784 34.0295 7.53869 34.0295 7.99625C34.0295 8.33485 34.1631 8.62328 34.4297 8.86227C34.6433 9.06149 35.0167 9.27038 35.5503 9.48931L36.5745 9.90745C37.3324 10.216 37.8818 10.5295 38.2233 10.848C38.7354 11.3256 38.9916 11.9279 38.9916 12.6542C38.9916 13.56 38.6716 14.2967 38.0312 14.8639C37.3908 15.4311 36.5853 15.7149 35.6141 15.7149C34.6537 15.7149 33.88 15.4462 33.2934 14.9087C32.8132 14.4708 32.4825 13.8836 32.3007 13.1469L33.4532 12.8484C33.5281 13.3461 33.7413 13.7693 34.0936 14.1176C34.4885 14.4859 35.0006 14.6697 35.6302 14.6697C36.3133 14.6697 36.8415 14.4784 37.2149 14.095C37.5883 13.712 37.775 13.2465 37.775 12.699C37.775 12.2214 37.599 11.8334 37.2468 11.5345C37.0443 11.3554 36.6171 11.1268 35.9664 10.848L35.006 10.4299C34.3552 10.1511 33.88 9.87736 33.5815 9.60863C33.0906 9.17077 32.8451 8.6283 32.8451 7.98155C32.8451 7.21514 33.1251 6.59562 33.6852 6.12266C34.2457 5.65005 34.9633 5.41357 35.8384 5.41357C36.5 5.41357 37.0708 5.56298 37.551 5.86145C37.9886 6.13018 38.3355 6.49852 38.5913 6.96611ZM42.353 5.57767V9.62367H47.8272V5.57767H49.0116V15.5357H47.8272V10.6689H42.353V15.5357H41.1686V5.57767H42.353ZM60.6884 14.2369C59.6162 15.2222 58.3009 15.7149 56.7427 15.7149C55.185 15.7149 53.8696 15.2222 52.7975 14.2369C51.7249 13.2515 51.1886 12.0272 51.1886 10.5642C51.1886 9.09123 51.7276 7.86439 52.8051 6.88406C53.8831 5.90373 55.1957 5.41357 56.7427 5.41357C58.2901 5.41357 59.6028 5.90373 60.6804 6.88406C61.7583 7.86439 62.2973 9.09123 62.2973 10.5642C62.2973 12.0272 61.761 13.2515 60.6884 14.2369ZM59.816 7.65299C58.9732 6.85683 57.9486 6.45875 56.7427 6.45875C55.5369 6.45875 54.5127 6.85683 53.6695 7.65299C52.8266 8.44915 52.4052 9.4198 52.4052 10.5642C52.4052 11.7087 52.8266 12.6793 53.6695 13.4755C54.5127 14.2716 55.5369 14.6697 56.7427 14.6697C57.9486 14.6697 58.9732 14.2716 59.816 13.4755C60.6592 12.6793 61.0806 11.7087 61.0806 10.5642C61.0806 9.4198 60.6592 8.44915 59.816 7.65299ZM64.4739 5.57767H66.4108C67.6274 5.57767 68.5237 5.81165 69.0999 6.2796C69.7511 6.79699 70.0765 7.50859 70.0765 8.41439C70.0765 9.19084 69.7964 9.85012 69.2359 10.3926C68.6758 10.9351 67.8303 11.2063 66.6989 11.2063H65.6586V15.5357H64.4739V5.57767ZM65.6586 6.62286V10.1611H66.6348C67.3393 10.1611 67.8914 10.002 68.2917 9.68351C68.6919 9.36498 68.8917 8.92211 68.8917 8.35455C68.8917 7.20009 68.1076 6.62286 66.5387 6.62286H65.6586Z" fill="#1D1D1B"/>
</g>
<defs>
<clipPath id="clip0_954_3310">
<rect width="70.9091" height="11" fill="white" transform="translate(0.0908203 5.10938)"/>
</clipPath>
</defs>
</svg>
