<svg width="21" height="13" viewBox="0 0 21 13" fill="none" xmlns="http://www.w3.org/2000/svg">
<path d="M0.169063 6.352C0.169063 5.168 0.382396 4.144 0.809063 3.28C1.2464 2.416 1.8704 1.74933 2.68106 1.28C3.49173 0.8 4.45706 0.559999 5.57706 0.559999C6.6864 0.559999 7.6464 0.8 8.45706 1.28C9.26773 1.74933 9.89173 2.416 10.3291 3.28C10.7771 4.144 11.0011 5.16267 11.0011 6.336C11.0011 7.52 10.7771 8.54933 10.3291 9.424C9.89173 10.288 9.26773 10.96 8.45706 11.44C7.6464 11.92 6.6864 12.16 5.57706 12.16C4.45706 12.16 3.49173 11.92 2.68106 11.44C1.88106 10.96 1.2624 10.288 0.825063 9.424C0.387729 8.54933 0.169063 7.52533 0.169063 6.352ZM2.32906 6.352C2.32906 7.62133 2.60106 8.61333 3.14506 9.328C3.68906 10.0427 4.49973 10.4 5.57706 10.4C6.6224 10.4 7.42773 10.0427 7.99306 9.328C8.5584 8.61333 8.84106 7.62133 8.84106 6.352C8.84106 5.072 8.5584 4.08 7.99306 3.376C7.4384 2.672 6.63306 2.32 5.57706 2.32C4.49973 2.32 3.68906 2.672 3.14506 3.376C2.60106 4.08 2.32906 5.072 2.32906 6.352ZM12.9708 12V0.223999H14.9708V7.36H15.0028L18.2828 3.92H20.6988L16.6188 8.192L16.6348 7.392L20.9868 12H18.5068L15.0028 8.384H14.9708V12H12.9708Z" fill="#3C3A37"/>
</svg>
