<svg width="18" height="16" viewBox="0 0 18 16" fill="none" xmlns="http://www.w3.org/2000/svg">
<path d="M4.09931 12V2.416H0.371313V0.719999H9.89131V2.416H6.16331V12H4.09931ZM13.6836 15.584C12.9369 15.584 12.2596 15.504 11.6516 15.344C11.0542 15.184 10.5209 14.9387 10.0516 14.608L10.4836 13.168C10.7929 13.3707 11.1129 13.536 11.4436 13.664C11.7742 13.792 12.1156 13.888 12.4676 13.952C12.8196 14.016 13.1769 14.048 13.5396 14.048C14.2862 14.048 14.8409 13.8613 15.2036 13.488C15.5769 13.1253 15.7636 12.6027 15.7636 11.92V9.984H15.9236C15.7529 10.5387 15.4062 10.9813 14.8836 11.312C14.3716 11.6427 13.7796 11.808 13.1076 11.808C12.3822 11.808 11.7476 11.648 11.2036 11.328C10.6702 10.9973 10.2542 10.528 9.95556 9.92C9.6569 9.312 9.50756 8.59733 9.50756 7.776C9.50756 6.95467 9.6569 6.24533 9.95556 5.648C10.2542 5.04 10.6702 4.576 11.2036 4.256C11.7476 3.92533 12.3822 3.76 13.1076 3.76C13.7902 3.76 14.3822 3.92533 14.8836 4.256C15.3956 4.576 15.7369 5.01333 15.9076 5.568L15.7636 5.472L15.9236 3.92H17.8596C17.8169 4.25067 17.7849 4.58667 17.7636 4.928C17.7422 5.26933 17.7316 5.60533 17.7316 5.936V11.68C17.7316 12.9493 17.3849 13.9147 16.6916 14.576C16.0089 15.248 15.0062 15.584 13.6836 15.584ZM13.6516 10.272C14.2916 10.272 14.7982 10.0587 15.1716 9.632C15.5556 9.19467 15.7476 8.576 15.7476 7.776C15.7476 6.976 15.5556 6.36267 15.1716 5.936C14.7982 5.50933 14.2916 5.296 13.6516 5.296C13.0009 5.296 12.4836 5.50933 12.0996 5.936C11.7156 6.36267 11.5236 6.976 11.5236 7.776C11.5236 8.576 11.7156 9.19467 12.0996 9.632C12.4836 10.0587 13.0009 10.272 13.6516 10.272Z" fill="#3C3A37"/>
</svg>
